<svg xmlns="http://www.w3.org/2000/svg" viewBox="0 0 528 528">
    <style>
        .st0{fill:#4338CA;}
        .st1{fill:#FFFFFF;}
    </style>
    <path class="st0"
          d="M424.77,528H0V103.23C0,46.22,46.22,0,103.23,0h321.53C481.78,0,528,46.22,528,103.23v321.53C528,481.78,481.78,528,424.77,528z"/>
    <g>
        <path
            class="st1"
            d="M119.32,183.83c0-8.08,1.31-15.11,3.92-21.07s6.25-10.9,10.9-14.82c4.63-3.92,10.11-6.89,16.42-8.92
      c6.31-2.03,13.16-3.02,20.54-3.02h124.96c2.38,0,3.57,1.19,3.57,3.55v39.29c0,2.38-1.19,3.57-3.57,3.57H188.23
      c-6.42,0-10.88,1.71-13.38,5.17c-2.5,3.46-3.75,8.4-3.75,14.82v33.91c0,2.64,1.18,3.95,3.56,3.95h109.62
      c2.38,0,3.57,1.19,3.57,3.55v39.29c0,2.38-1.19,3.57-3.57,3.57H174.66c-2.38,0-3.56,1.31-3.56,3.92v97.84
      c0,2.38-1.21,3.57-3.57,3.57h-44.63c-2.38,0-3.57-1.19-3.57-3.57V183.83z"/>
        <g>
            <rect x="354.29" y="188.53" class="st1" width="34.34" height="34.34"/>
            <rect x="318.21" y="136.42" class="st1" width="42.36" height="42.36"/>
            <rect x="377.01" y="147.11" class="st1" width="31.67" height="31.67"/>
        </g>
    </g>
</svg>
