<svg version="1.1" id="Layer_1" xmlns="http://www.w3.org/2000/svg" x="0" y="0" viewBox="0 0 194.64 47.89" xml:space="preserve"><style>.st0{fill:#4338ca}</style><path class="st0" d="M0 8.95c0-1.51.24-2.83.73-3.94S1.9 2.97 2.77 2.23C3.64 1.5 4.66.95 5.84.57S8.31 0 9.69 0h23.38c.45 0 .67.22.67.66v7.35c0 .45-.22.67-.67.67H12.89c-1.2 0-2.04.32-2.5.97-.47.65-.7 1.57-.7 2.77v6.34c0 .49.22.74.67.74h20.51c.45 0 .67.22.67.66v7.35c0 .45-.22.67-.67.67H10.35c-.45 0-.67.24-.67.73v18.3c0 .45-.23.67-.67.67H.67c-.45.01-.67-.21-.67-.65V8.95zM68.07 39.88v7.35c0 .45-.22.67-.67.67H48.03c-.31 0-.58-.02-.8-.07-3.7-.32-6.32-1.39-7.88-3.24-1.56-1.85-2.34-4.64-2.34-8.38V.66c0-.44.22-.66.67-.66h8.35c.44 0 .67.22.67.66V37c0 1.47.87 2.21 2.6 2.21h18.1c.45 0 .67.23.67.67zM71.95 0h8.35c.45 0 .67.22.67.66v46.56c0 .45-.22.67-.67.67h-8.35c-.45 0-.67-.22-.67-.67V.66c0-.44.22-.66.67-.66zM86.57 7.61c0-1.47.27-2.69.8-3.68.53-.98 1.24-1.76 2.14-2.34.89-.58 1.9-.99 3.04-1.23C93.69.12 94.86 0 96.06 0c1.92 0 3.47.11 4.68.33 1.2.22 2.19.72 2.97 1.5.78.78 1.39 1.95 1.84 3.51.45 1.55.89 3.67 1.34 6.34l3.61 22.11c.04.18.1.47.17.87s.15.8.27 1.2c.11.4.22.76.33 1.07.11.31.21.47.3.47s.2-.16.33-.47.24-.67.33-1.07c.09-.4.18-.79.27-1.17.09-.38.13-.61.13-.7l3.47-22.58c.4-2.58.83-4.64 1.3-6.18s1.09-2.68 1.87-3.44c.78-.76 1.79-1.24 3.04-1.47 1.24-.22 2.85-.33 4.81-.33 2.81 0 5.1.55 6.88 1.67 1.78 1.11 2.67 3.03 2.67 5.74v39.82c0 .45-.23.67-.67.67h-8.35c-.45 0-.67-.22-.67-.67v-36.4c0-.09-.02-.28-.07-.57-.05-.29-.18-.43-.4-.43s-.39.08-.5.23c-.11.16-.21.32-.3.5-.04.09-.1.29-.17.6s-.13.64-.2 1-.13.71-.2 1.07c-.07.35-.12.62-.17.8-.27 1.11-.52 2.28-.77 3.51-.24 1.23-.59 2.85-1.04 4.88s-.99 4.61-1.64 7.75c-.65 3.14-1.5 7.15-2.57 12.06-.13.71-.36 1.4-.67 2.07-.31.67-.74 1.27-1.3 1.8-.56.54-1.3.97-2.24 1.3-.94.33-2.12.5-3.54.5-1.29 0-2.35-.16-3.17-.47-.83-.31-1.5-.7-2.04-1.17-.53-.47-.94-.99-1.2-1.57-.27-.58-.47-1.14-.6-1.67l-6.68-31.8c-.04-.09-.12-.34-.23-.77-.11-.42-.26-.66-.43-.7h-.33c-.18 0-.27.15-.27.47v37.01c0 .45-.22.67-.67.67h-8.35c-.45 0-.67-.22-.67-.67V7.61zM154.64 27.99c-1.38 0-2.86-.17-4.44-.53-1.58-.36-3.02-1.05-4.31-2.07a8.6 8.6 0 01-1.91-2.24c-.51-.86-.94-1.8-1.27-2.81-.33-1-.58-2.02-.74-3.07-.15-1.04-.23-2.08-.23-3.1V12.9c0-.4.04-.8.13-1.2.31-3.88 1.76-6.88 4.34-9.02.76-.63 1.69-1.22 2.81-1.8 1.11-.58 2.2-.86 3.27-.86h22.11c.44 0 .67.22.67.66v7.35c0 .45-.23.67-.67.67h-19.31c-.62 0-1.19.28-1.7.84-.51.55-.88 1.08-1.1 1.57-.22.45-.36.89-.4 1.34-.05.45-.07.89-.07 1.34 0 .71.04 1.45.13 2.2.09.76.4 1.43.94 2.01.49.49 1.17.78 2.04.87.87.09 1.81.13 2.84.13h7.48c1.38 0 2.83.19 4.34.57 1.51.38 2.92 1.1 4.21 2.17.76.63 1.39 1.38 1.9 2.27.51.89.94 1.85 1.27 2.87.33 1.03.57 2.09.7 3.21.13 1.11.2 2.19.2 3.21v1.4c0 .4-.05.78-.13 1.14-.36 4.05-1.78 7.17-4.28 9.35-.76.63-1.68 1.24-2.77 1.84-1.09.6-2.13.9-3.11.9h-24.32c-.45 0-.67-.22-.67-.67v-7.35c0-.44.22-.66.67-.66h21.51c.67 0 1.24-.33 1.74-.97.49-.64.85-1.23 1.07-1.77.22-.49.36-.96.4-1.4.04-.45.07-.91.07-1.4 0-.71-.04-1.46-.13-2.24-.09-.78-.4-1.48-.94-2.1-.45-.49-1.08-.84-1.91-1.04-.82-.2-1.79-.3-2.91-.3h-7.52zM184.47 9.83h6.42v6.42h-6.42zM177.72.08h7.93v7.93h-7.93zM188.72 2.08h5.93v5.93h-5.93z"/></svg>