<?xml version="1.0" encoding="UTF-8"?>
<svg version="1.1" xmlns="http://www.w3.org/2000/svg" width="2055" height="243">
<path d="M0 0 C1.03833984 -0.01224609 2.07667969 -0.02449219 3.14648438 -0.03710938 C12.18924203 -0.0541177 21.12251966 0.14138017 28.3125 6.1875 C28.81394531 6.60128906 29.31539063 7.01507813 29.83203125 7.44140625 C38.31467105 15.6663456 39.57972941 29.9703041 41.515625 41.0625 C41.72588821 42.25348801 41.93615143 43.44447601 42.15278625 44.67155457 C45.74558465 65.18982115 49.07688486 85.75436463 52.45483398 106.30883789 C53.22870972 111.01658723 54.00655836 115.72366602 54.78689003 120.43034935 C55.07984172 122.20223201 55.37128242 123.97436523 55.66112328 125.74675941 C56.06356025 128.20721321 56.47104479 130.66678296 56.87963867 133.1262207 C57.05343552 134.20067947 57.05343552 134.20067947 57.23074341 135.29684448 C57.97166121 139.71630973 59.01232861 143.90879061 60.3125 148.1875 C62.65500157 141.84951589 64.07180441 135.68927158 65.04248047 129.01220703 C65.19094421 128.03679459 65.33940796 127.06138214 65.49237061 126.05641174 C65.81172511 123.95196256 66.12749033 121.84696613 66.43999863 119.74148941 C66.93781272 116.39062028 67.44608027 113.0414814 67.95706177 109.69259644 C69.22529257 101.36827418 70.47833458 93.0416867 71.72705078 84.7144165 C72.78200819 77.67964883 73.84524614 70.64623664 74.92001724 63.61446762 C75.41591002 60.3485501 75.89989715 57.08101687 76.3835144 53.81326294 C82.33440265 14.39018832 82.33440265 14.39018832 92.12109375 5.5546875 C100.43877674 -0.30283573 110.9051876 -0.15489704 120.6875 -0.125 C121.73421875 -0.14111328 122.7809375 -0.15722656 123.859375 -0.17382812 C135.35548441 -0.18092449 146.50435449 1.69848631 155.0625 9.85546875 C160.23147736 15.48418689 161.56305856 20.74976153 161.55973816 28.39411926 C161.56215257 29.0968277 161.56456699 29.79953614 161.56705457 30.52353877 C161.57266679 32.86580486 161.56404754 35.20779521 161.55541992 37.55004883 C161.55649337 39.23401971 161.558433 40.91799023 161.56117249 42.60195923 C161.56601202 47.16561175 161.55837762 51.7291662 161.54821944 56.29280686 C161.53943038 61.06627174 161.54119651 65.83973363 161.5415802 70.61320496 C161.54064434 78.62358236 161.53196848 86.63392183 161.51831055 94.64428711 C161.50255906 103.91704187 161.4973134 113.18975516 161.4980461 122.46252233 C161.49865538 131.37606433 161.49356086 140.28959278 161.48525429 149.20313072 C161.48171594 153.00097446 161.47989027 156.7988134 161.47936058 160.59665871 C161.47835962 165.06095662 161.47228337 169.52521943 161.46219444 173.98950577 C161.45926231 175.63228452 161.45804551 177.27506732 161.45862198 178.91784859 C161.45910918 181.15053661 161.45349178 183.38312478 161.44621277 185.61579895 C161.44453692 186.86809705 161.44286108 188.12039515 161.44113445 189.41064167 C161.3125 192.1875 161.3125 192.1875 160.3125 193.1875 C147.7725 193.1875 135.2325 193.1875 122.3125 193.1875 C121.9825 143.0275 121.6525 92.8675 121.3125 41.1875 C120.3225 41.1875 119.3325 41.1875 118.3125 41.1875 C118.18805795 41.81492662 118.06361589 42.44235325 117.93540287 43.0887928 C113.3735453 66.06182249 108.58255315 88.98427406 103.75561523 111.90283203 C102.74572717 116.70010785 101.74044775 121.4983157 100.73901367 126.29736328 C99.51492552 132.16322084 98.28292825 138.02736516 97.04532051 143.89038467 C96.57973929 146.10241568 96.11687605 148.31502072 95.65690422 150.52822495 C95.01443873 153.61665795 94.36178927 156.70277919 93.70678711 159.78857422 C93.52330719 160.68222687 93.33982727 161.57587952 93.15078735 162.49661255 C91.26198604 171.29321234 89.14738247 180.94695513 82.3125 187.1875 C71.81126212 193.54716056 59.98984311 195.06810204 47.99609375 192.46875 C39.91310468 189.74142852 35.72179147 185.42852346 31.3125 178.1875 C30.28866577 174.99412537 30.28866577 174.99412537 29.53662109 171.48217773 C29.39315372 170.82860605 29.24968636 170.17503437 29.10187149 169.50165749 C28.62553351 167.31482989 28.1681617 165.1244911 27.7109375 162.93359375 C27.37050921 161.34903774 27.02912124 159.76468765 26.68685913 158.18052673 C25.54189669 152.85370921 24.42658047 147.5208465 23.3125 142.1875 C22.90445281 140.24161401 22.49628827 138.29575263 22.0880127 136.34991455 C18.54424877 119.44194813 15.05244238 102.52323326 11.56884766 85.6027832 C10.46123674 80.22423979 9.34917717 74.84663168 8.23438644 69.46957207 C7.81560417 67.44495031 7.39856741 65.41996664 6.98335648 63.39460945 C6.40924758 60.59430642 5.82952448 57.79522022 5.24853516 54.99633789 C5.0812793 54.17320099 4.91402344 53.35006409 4.74169922 52.50198364 C3.91434999 48.54551968 2.98368758 44.89387179 1.3125 41.1875 C0.9825 41.1875 0.6525 41.1875 0.3125 41.1875 C0.30826806 41.96479178 0.30403612 42.74208357 0.29967594 43.54292965 C0.19651374 62.42850603 0.08789795 81.31404378 -0.02683926 100.19955349 C-0.08219211 109.33232258 -0.13567743 118.46509557 -0.18481445 127.59790039 C-0.2276311 135.55510327 -0.27390262 143.51227715 -0.32437855 151.46943527 C-0.35099986 155.68534283 -0.37585336 159.90124456 -0.39657402 164.11718559 C-0.41610877 168.08075003 -0.44024285 172.04425916 -0.46799088 176.00777435 C-0.47737813 177.46670849 -0.48504734 178.92565479 -0.49091911 180.38460732 C-0.49915186 182.36799619 -0.51401749 184.35135431 -0.52928162 186.33470154 C-0.53573417 187.44730567 -0.54218672 188.5599098 -0.5488348 189.70622921 C-0.6875 192.1875 -0.6875 192.1875 -1.6875 193.1875 C-4.4991338 193.27611992 -7.28608255 193.30272355 -10.09765625 193.28515625 C-10.93969101 193.2837413 -11.78172577 193.28232635 -12.64927673 193.28086853 C-15.34955335 193.27525263 -18.04974828 193.26269748 -20.75 193.25 C-22.57617068 193.24498705 -24.40234266 193.24042379 -26.22851562 193.23632812 C-30.71487542 193.22527804 -35.20117384 193.20800279 -39.6875 193.1875 C-41.09676573 190.36896853 -40.8167283 188.02450277 -40.82121277 184.87086487 C-40.82347833 184.21538176 -40.82574388 183.55989865 -40.82807809 182.88455242 C-40.83443197 180.67765594 -40.83358781 178.47082066 -40.83276367 176.26391602 C-40.83575452 174.68542908 -40.83915688 173.10694288 -40.84294128 171.52845764 C-40.85179849 167.23045 -40.85412027 162.93246226 -40.85475707 158.63444638 C-40.85546723 155.94715686 -40.85760102 153.25987241 -40.86025429 150.57258415 C-40.86951721 141.19072015 -40.87358847 131.80887038 -40.87280273 122.42700195 C-40.87220343 113.69528485 -40.88272383 104.96362982 -40.8985464 96.23192841 C-40.91165467 88.72943983 -40.91698517 81.22697144 -40.91634732 73.72447151 C-40.91609307 69.24667206 -40.91890349 64.76892761 -40.92952538 60.2911396 C-40.93926035 56.07143593 -40.93924878 51.85183918 -40.93200874 47.63213158 C-40.9309692 46.09030627 -40.93328799 44.54847413 -40.9393692 43.00666046 C-41.02888493 18.72051135 -41.02888493 18.72051135 -32.6875 9.1875 C-23.81387599 0.69599377 -11.62393355 0.00708345 0 0 Z " fill="#4C4EA1" transform="translate(387.6875,-0.1875)"/>
<path d="M0 0 C1.2325074 -0.002062 1.2325074 -0.002062 2.48991394 -0.00416565 C3.38255447 -0.00057037 4.27519501 0.0030249 5.19488525 0.00672913 C6.61490593 0.00651009 6.61490593 0.00651009 8.06361389 0.00628662 C11.19105322 0.00698299 14.3184329 0.01476253 17.44586182 0.02259827 C19.61490852 0.02446342 21.78395565 0.02588687 23.95300293 0.02688599 C29.66090051 0.03070346 35.36877263 0.0405272 41.07666016 0.05158997 C46.90154679 0.06182062 52.72643754 0.06638716 58.55133057 0.07142639 C69.97972717 0.08215013 81.40810487 0.09921735 92.83648682 0.12025452 C92.86113779 5.08647801 92.8793233 10.05266618 92.89141846 15.01893616 C92.89645871 16.70969767 92.90329087 18.40045481 92.91192627 20.09120178 C92.92400538 22.51626159 92.92971805 24.94126396 92.93414307 27.36634827 C92.93930435 28.12676926 92.94446564 28.88719025 92.94978333 29.6706543 C92.94997919 31.48758022 92.89845958 33.30438579 92.83648682 35.12025452 C91.10473644 36.85200489 88.87276897 36.2501741 86.56378174 36.26370239 C85.80847168 36.26317368 85.05316162 36.26264496 84.27496338 36.26210022 C83.48305603 36.26557465 82.69114868 36.26904907 81.87524414 36.27262878 C80.14934242 36.27999971 78.42343114 36.28533794 76.6975174 36.28891945 C73.96558379 36.29606592 71.23383181 36.31171949 68.50195312 36.33026123 C60.73230512 36.38281067 52.96275393 36.43070066 45.19293213 36.44618225 C40.44536409 36.45626385 35.69824841 36.48559652 30.95085907 36.52750206 C29.14082003 36.53981845 27.33071709 36.54493215 25.52063751 36.54270363 C22.9851306 36.54035069 20.45092009 36.5625165 17.91558838 36.59022522 C17.16837524 36.58362381 16.42116211 36.5770224 15.65130615 36.57022095 C10.76388566 36.65784769 8.28143517 37.66254541 4.83648682 41.12025452 C0.35269089 47.49264071 0.00532468 54.57971125 0.83648682 62.12025452 C1.70939974 66.39689986 2.69392083 69.90151747 5.71148682 73.12025452 C9.56181278 74.93217262 13.43626976 75.24403201 17.64825439 75.26210022 C18.57725052 75.26913467 19.50624664 75.27616913 20.46339417 75.28341675 C21.45921005 75.28758102 22.45502594 75.2917453 23.48101807 75.29603577 C25.6249078 75.3192607 27.76878801 75.34337906 29.91265869 75.36830139 C33.26485329 75.40316168 36.61670279 75.43262395 39.96905518 75.44618225 C76.25075515 75.62132599 76.25075515 75.62132599 90.04351807 88.12025452 C103.01434633 101.59643973 105.35336364 120.91724791 105.05523682 138.85072327 C104.49259791 154.19318283 100.20690195 168.53793779 89.83648682 180.12025452 C82.65579746 186.36024221 73.35996982 193.24240997 63.49624634 193.24723816 C62.16699883 193.2514679 62.16699883 193.2514679 60.81089783 193.25578308 C59.84142715 193.25375885 58.87195648 193.25173462 57.87310791 193.24964905 C56.85015121 193.25140137 55.82719452 193.25315369 54.77323914 193.25495911 C51.38545037 193.25936746 47.99771363 193.25644361 44.60992432 193.25306702 C42.26248159 193.25374024 39.91503893 193.25471043 37.56759644 193.25596619 C32.64647763 193.2574417 27.72537696 193.25529291 22.80426025 193.25062561 C16.48085274 193.24492215 10.15748761 193.24821217 3.83408165 193.25419807 C-1.01272911 193.25780229 -5.85952973 193.25666585 -10.70634079 193.25407028 C-13.03886291 193.25340095 -15.37138595 193.25422965 -17.70390701 193.25654984 C-20.95560414 193.25907475 -24.20723144 193.25523833 -27.45892334 193.24964905 C-28.43244247 193.25167328 -29.40596161 193.25369751 -30.40898132 193.25578308 C-31.28950668 193.25296326 -32.17003204 193.25014343 -33.07723999 193.24723816 C-33.84672785 193.24686113 -34.61621571 193.24648411 -35.40902138 193.24609566 C-37.16351318 193.12025452 -37.16351318 193.12025452 -38.16351318 192.12025452 C-38.2643853 189.61101298 -38.30323351 187.12989068 -38.29632568 184.62025452 C-38.29728241 183.86937561 -38.29823914 183.1184967 -38.29922485 182.34486389 C-38.29990657 180.75436825 -38.2980529 179.16386984 -38.29388428 177.57337952 C-38.28853585 175.13060797 -38.29382952 172.6880203 -38.30023193 170.24525452 C-38.29957115 168.70358744 -38.29828998 167.16192048 -38.29632568 165.62025452 C-38.29834991 164.88484436 -38.30037415 164.1494342 -38.30245972 163.39173889 C-38.27846479 158.23520612 -38.27846479 158.23520612 -37.16351318 157.12025452 C-34.35979178 157.02162824 -31.57999423 156.98726385 -28.77581787 156.99427795 C-27.45628365 156.99147575 -27.45628365 156.99147575 -26.11009216 156.98861694 C-24.19265792 156.98460263 -22.27521886 156.98253717 -20.35778046 156.98215485 C-16.28478497 156.9787517 -12.21195092 156.95740319 -8.13901138 156.93692398 C-0.54771117 156.89883878 7.04342015 156.8676392 14.63482666 156.86976624 C19.90762264 156.87055271 25.17983329 156.84721341 30.4524765 156.80788422 C32.46348185 156.79740931 34.47455464 156.79591111 36.48557281 156.80353546 C39.30143125 156.81314395 42.11551521 156.79199928 44.93121338 156.7638092 C46.17826805 156.77910423 46.17826805 156.77910423 47.45051575 156.79470825 C51.76128467 156.71732559 53.3447058 156.52067166 56.80895996 153.70001221 C61.76418686 147.39514642 63.49926976 142.05446681 63.33648682 134.05775452 C63.35195557 133.29398499 63.36742432 132.53021545 63.38336182 131.74330139 C63.34476884 126.10390269 62.08753961 122.74017164 58.83648682 118.12025452 C53.87891446 114.95584663 49.01990953 114.00448095 43.20831299 113.97840881 C42.31935837 113.97137436 41.43040375 113.9643399 40.51451111 113.95709229 C39.56244278 113.95292801 38.61037445 113.94876373 37.62945557 113.94447327 C35.57671126 113.92124677 33.52397688 113.89712835 31.47125244 113.87220764 C28.2639121 113.83736379 25.05693128 113.80789386 21.84942627 113.79432678 C-13.67355958 113.61501529 -13.67355958 113.61501529 -27.14788818 101.30775452 C-40.20075259 87.47394951 -41.98590296 68.90458186 -41.47991943 50.78431702 C-40.74428184 34.82177232 -36.03361815 21.76313813 -24.24945068 10.60853577 C-17.2804695 4.98924335 -9.17111658 -0.01187968 0 0 Z " fill="#4C4EA1" transform="translate(610.1635131835938,-0.1202545166015625)"/>
<path d="M0 0 C0.8903595 -0.00137466 1.78071899 -0.00274933 2.69805908 -0.00416565 C3.66191025 -0.00057037 4.62576141 0.0030249 5.61882019 0.00672913 C6.64367523 0.0065831 7.66853027 0.00643707 8.72444153 0.00628662 C12.10616688 0.00698234 15.4878369 0.01475881 18.86955261 0.02259827 C21.21653208 0.02446366 23.56351194 0.02588699 25.91049194 0.02688599 C32.08362404 0.03070163 38.25673256 0.04052381 44.42985535 0.05158997 C50.73071473 0.06182456 57.03157793 0.066388 63.33244324 0.07142639 C75.69247963 0.0821469 88.05249853 0.09921192 100.41252136 0.12025452 C102.66467563 4.62456304 101.59836583 10.81881663 101.5978241 15.83314514 C101.60001279 18.11132929 101.6181794 20.38903094 101.63713074 22.66712952 C101.64006429 24.10983619 101.64204934 25.55254517 101.64299011 26.99525452 C101.647099 28.31267639 101.65120789 29.63009827 101.65544128 30.98744202 C101.41252136 34.12025452 101.41252136 34.12025452 99.41252136 36.12025452 C96.63784915 36.31173591 93.96203462 36.37932234 91.18669128 36.35975647 C89.91082909 36.36277771 89.91082909 36.36277771 88.60919189 36.36585999 C86.75834669 36.36941101 84.90748937 36.36863162 83.05664635 36.36408424 C80.12713965 36.35850558 77.19803106 36.36762622 74.26855469 36.38128662 C65.93818958 36.41847402 57.60795729 36.43695466 49.2775116 36.42567444 C44.18513304 36.41982338 39.09331204 36.43808685 34.00104713 36.47156334 C32.05980805 36.47952119 30.11850826 36.47823516 28.17728233 36.46753883 C25.4597506 36.45321274 22.74397007 36.46948173 20.02653503 36.49256897 C18.82391525 36.47491737 18.82391525 36.47491737 17.59700012 36.45690918 C13.59261676 36.52359518 11.64643844 36.94031083 8.43664551 39.40948486 C4.98419937 44.0331075 5.29145788 47.58076362 5.31486511 53.29212952 C5.31698753 54.31575592 5.31698753 54.31575592 5.31915283 55.36006165 C5.32473052 57.53017136 5.33727882 59.70017622 5.35002136 61.87025452 C5.35503925 63.34551344 5.35960165 64.82077398 5.36369324 66.29603577 C5.37469262 69.9041425 5.39194183 73.51218827 5.41252136 77.12025452 C6.4877153 77.13056198 7.56290924 77.14086945 8.67068481 77.15148926 C18.78042325 77.2490487 28.89009773 77.35176575 38.99973202 77.45959377 C44.1977719 77.51486794 49.39581735 77.56829498 54.59391785 77.61756897 C59.60599398 77.66514642 64.6179994 77.71748656 69.62999153 77.77319527 C71.54662386 77.79364892 73.46327561 77.8123569 75.37994194 77.82932854 C78.05485463 77.85330618 80.72963234 77.88336939 83.40446472 77.91493225 C84.20503296 77.92068771 85.0056012 77.92644318 85.83042908 77.93237305 C91.2984692 78.00620236 91.2984692 78.00620236 92.41252136 79.12025452 C92.51339348 81.62949605 92.55224169 84.11061835 92.54533386 86.62025452 C92.54629059 87.37113342 92.54724731 88.12201233 92.54823303 88.89564514 C92.54891474 90.48614078 92.54706108 92.07663919 92.54289246 93.66712952 C92.53754403 96.10990106 92.5428377 98.55248873 92.54924011 100.99525452 C92.54857933 102.53692159 92.54729816 104.07858855 92.54533386 105.62025452 C92.54735809 106.35566467 92.54938232 107.09107483 92.5514679 107.84877014 C92.52747297 113.00530291 92.52747297 113.00530291 91.41252136 114.12025452 C88.735497 114.24537595 86.08299863 114.30632021 83.40446472 114.32557678 C82.56551163 114.33547638 81.72655853 114.34537598 80.86218262 114.35557556 C78.07560597 114.38728636 75.28901224 114.41198566 72.50236511 114.43666077 C70.57564844 114.45722204 68.64893637 114.47821828 66.722229 114.49963379 C61.64069836 114.55493994 56.55912644 114.6043114 51.4775238 114.65248108 C46.29631356 114.70263389 41.11516357 114.75835235 35.93400574 114.81361389 C25.76022903 114.92129989 15.58640011 115.02272151 5.41252136 115.12025452 C5.4022139 116.08269577 5.39190643 117.04513702 5.38128662 118.03674316 C5.28372117 127.0869254 5.18100354 136.13703628 5.07318211 145.18710232 C5.01791129 149.84033221 4.96448478 154.49356833 4.91520691 159.14686584 C4.86762451 163.63375568 4.81528419 168.12056664 4.75958061 172.60736275 C4.73912921 174.32303477 4.72042083 176.03872845 4.70344734 177.7544384 C4.67946471 180.1491622 4.64940224 182.54373554 4.61784363 184.93836975 C4.61208817 185.65478134 4.6063327 186.37119293 4.60040283 187.10931396 C4.52657352 192.00620236 4.52657352 192.00620236 3.41252136 193.12025452 C0.61258539 193.22128706 -2.16216507 193.25995539 -4.96247864 193.25306702 C-5.80214172 193.25402374 -6.64180481 193.25498047 -7.50691223 193.25596619 C-9.28572159 193.25664799 -11.06453341 193.25479368 -12.84333801 193.25062561 C-15.5758164 193.24527734 -18.3081304 193.25057057 -21.04060364 193.25697327 C-22.76456234 193.25631249 -24.48852093 193.25503132 -26.21247864 193.25306702 C-27.03538391 193.25509125 -27.85828918 193.25711548 -28.70613098 193.25920105 C-34.47252809 193.23520506 -34.47252809 193.23520506 -35.58747864 192.12025452 C-35.69087193 190.07176529 -35.72270914 188.01965712 -35.72792053 185.96856689 C-35.73089165 185.31872733 -35.73386278 184.66888776 -35.73692393 183.99935609 C-35.74564687 181.80551193 -35.74712226 179.61172211 -35.74861145 177.41786194 C-35.7532375 175.85099673 -35.75826186 174.28413265 -35.76365662 172.7172699 C-35.77681281 168.44599889 -35.78323311 164.17474362 -35.78766727 159.9034555 C-35.79059594 157.23274698 -35.79470059 154.56204279 -35.79917145 151.89133644 C-35.81286169 143.52987792 -35.82251795 135.16842924 -35.82637334 126.80696028 C-35.83084256 117.16715195 -35.84833099 107.52748623 -35.87737393 97.88772124 C-35.89905033 90.43279521 -35.90908097 82.97790909 -35.91041446 75.5229519 C-35.91145925 71.07357675 -35.91729597 66.62433537 -35.93523407 62.17499352 C-35.95181544 57.97988707 -35.95382187 53.78501341 -35.94509506 49.58988571 C-35.94432974 48.05815186 -35.94859996 46.526405 -35.95855331 44.99470329 C-36.03508294 32.47266682 -35.60757138 20.60837094 -26.58747864 11.12025452 C-26.06154114 10.56595764 -25.53560364 10.01166077 -24.99372864 9.44056702 C-18.28852209 3.08327213 -9.17355257 -0.01098629 0 0 Z " fill="#4C4EA1" transform="translate(35.58747863769531,-0.1202545166015625)"/>
<path d="M0 0 C0.68166733 -0.00335861 1.36333466 -0.00671722 2.06565857 -0.01017761 C4.32984219 -0.01970874 6.59395182 -0.02163283 8.8581543 -0.02270508 C10.43841075 -0.02591986 12.0186669 -0.0292841 13.59892273 -0.03279114 C16.92207527 -0.03879038 20.2452018 -0.04063059 23.56835938 -0.04003906 C27.79327222 -0.03993824 32.01801397 -0.05350361 36.24288654 -0.07081127 C39.51434568 -0.08203174 42.78576505 -0.0839551 46.05724144 -0.08342934 C47.61230233 -0.08459773 49.16736465 -0.08895416 50.72240639 -0.0967617 C68.62096016 -0.17810117 85.79151898 1.19602254 99.36987305 14.14526367 C114.4260397 29.94494472 116.86336121 52.16593142 116.5847168 73.02416992 C115.98675828 92.5191031 111.21125589 111.74365196 97.68237305 126.39526367 C85.82985512 137.53846102 71.29068523 141.13129345 55.47143555 141.46166992 C54.63647552 141.48245102 53.8015155 141.50323212 52.94125366 141.52464294 C50.29253815 141.58965836 47.64372946 141.64879858 44.99487305 141.70776367 C43.19147827 141.75099463 41.38809267 141.79461034 39.5847168 141.83862305 C35.17986266 141.94529006 30.77491545 142.04669063 26.36987305 142.14526367 C26.35956558 142.74439072 26.34925812 143.34351776 26.33863831 143.96080017 C26.2308034 150.17336455 26.1161876 156.38577708 25.99755859 162.59814453 C25.95413566 164.9194014 25.91246621 167.24069175 25.87255859 169.56201172 C25.81503365 172.89064646 25.7512888 176.21911153 25.6862793 179.54760742 C25.6695668 180.59238754 25.65285431 181.63716766 25.63563538 182.71360779 C25.61569016 183.67452835 25.59574493 184.63544891 25.57519531 185.62548828 C25.55965103 186.47598251 25.54410675 187.32647675 25.52809143 188.20274353 C25.36987305 190.14526367 25.36987305 190.14526367 24.36987305 191.14526367 C22.00588836 191.24604487 19.67175994 191.28499582 17.30737305 191.27807617 C16.60088623 191.2790329 15.89439941 191.27998962 15.16650391 191.28097534 C13.67016511 191.281657 12.17382338 191.27980372 10.67749023 191.27563477 C8.37957148 191.27028625 6.08184819 191.27558018 3.78393555 191.28198242 C2.33341428 191.28132164 0.88289313 191.28004047 -0.56762695 191.27807617 C-1.60512085 191.28111252 -1.60512085 191.28111252 -2.66357422 191.28421021 C-7.51517472 191.26021591 -7.51517472 191.26021591 -8.63012695 190.14526367 C-8.72781748 187.70416347 -8.7600908 185.29139075 -8.75038147 182.84983826 C-8.75123589 182.07719244 -8.75209032 181.30454661 -8.75297064 180.50848728 C-8.75462778 177.89967813 -8.74910027 175.29093221 -8.74365234 172.68212891 C-8.7433705 170.81993613 -8.74352816 168.95774325 -8.74409485 167.09555054 C-8.74438292 162.02344782 -8.73848466 156.95136852 -8.73152089 151.87927127 C-8.72528893 146.58480366 -8.72468368 141.29033558 -8.72349548 135.99586487 C-8.7203817 125.96254943 -8.71216768 115.92924482 -8.70214599 105.89593416 C-8.69098631 94.47654083 -8.68547477 83.05714698 -8.68045056 71.63774955 C-8.66998511 48.14024824 -8.65238476 24.64275656 -8.63012695 1.14526367 C-5.73953283 -0.30003339 -3.22980622 0.00996533 0 0 Z M25.36987305 35.14526367 C25.27550775 37.38456253 25.25244977 39.62688117 25.25634766 41.86816406 C25.25620163 42.57056717 25.2560556 43.27297028 25.25590515 43.99665833 C25.25660432 46.32877646 25.26439688 48.66081567 25.2722168 50.99291992 C25.27408096 52.60574805 25.27550487 54.21857674 25.27650452 55.83140564 C25.28032982 60.08441724 25.2901602 64.33739491 25.3012085 68.59039307 C25.31142236 72.92703797 25.31600208 77.26368834 25.32104492 81.6003418 C25.33178246 90.11533136 25.34885902 98.6302933 25.36987305 107.14526367 C31.04399313 107.29447187 36.71695183 107.4028826 42.39257812 107.47485352 C44.31986402 107.50487908 46.24701496 107.54571347 48.17382812 107.59790039 C61.92268546 108.45507561 61.92268546 108.45507561 73.89257812 102.73608398 C74.38008545 102.21111328 74.86759277 101.68614258 75.36987305 101.14526367 C76.05823242 100.40663086 76.7465918 99.66799805 77.45581055 98.90698242 C77.88120117 98.22249023 78.3065918 97.53799805 78.74487305 96.83276367 C79.18573242 96.15600586 79.6265918 95.47924805 80.08081055 94.78198242 C83.9969064 86.77178636 84.8663692 79.65186684 84.80737305 70.77026367 C84.82735352 69.7106543 84.84733398 68.65104492 84.86791992 67.55932617 C84.86149568 57.07496629 82.44927062 48.47274444 75.1081543 40.80151367 C68.96565827 34.94888825 64.93048169 33.99219648 56.58081055 34.01245117 C55.72178131 34.01149445 54.86275208 34.01053772 53.97769165 34.009552 C52.16375658 34.00887188 50.34981906 34.0107145 48.53588867 34.01489258 C45.74872425 34.02025626 42.96172003 34.01493523 40.17456055 34.00854492 C38.41414352 34.00920548 36.6537266 34.01048617 34.89331055 34.01245117 C34.0548056 34.01042694 33.21630066 34.00840271 32.35238647 34.00631714 C28.55380793 33.65057583 28.55380793 33.65057583 25.36987305 35.14526367 Z " fill="#4C4EA1" transform="translate(817.630126953125,51.854736328125)"/>
<path d="M0 0 C17.37226196 -0.44210846 35.46804762 2.20925994 49.484375 13.12109375 C50.350625 13.69859375 51.216875 14.27609375 52.109375 14.87109375 C60.57851958 22.89449388 66.04547393 34.44397761 66.57778931 46.18074036 C66.61652749 48.70826739 66.6229384 51.2338991 66.6171875 53.76171875 C66.61814423 54.68450623 66.61910095 55.6072937 66.62008667 56.55804443 C66.62076538 58.50126209 66.61893267 60.44448205 66.61474609 62.38769531 C66.60936905 65.37440004 66.61471401 68.36095604 66.62109375 71.34765625 C66.62043339 73.23567742 66.61915311 75.12369849 66.6171875 77.01171875 C66.61921173 77.90957092 66.62123596 78.8074231 66.62332153 79.73248291 C66.59934123 86.00612752 66.59934123 86.00612752 65.484375 87.12109375 C64.14364683 87.21636412 62.79794997 87.24298145 61.45384216 87.24134827 C60.58580963 87.24272293 59.7177771 87.2440976 58.82344055 87.24551392 C57.86390976 87.24191864 56.90437897 87.23832336 55.91577148 87.23461914 C54.91100769 87.23476517 53.9062439 87.23491119 52.87103271 87.23506165 C49.53248983 87.23436205 46.19400195 87.22656749 42.85546875 87.21875 C40.54761282 87.21688599 38.23975649 87.21546201 35.93190002 87.21446228 C29.84419674 87.21063579 23.75651714 87.2008044 17.66882324 87.1897583 C11.46216146 87.17954698 5.25549587 87.17496526 -0.95117188 87.16992188 C-13.13933335 87.15918225 -25.32747721 87.14210427 -37.515625 87.12109375 C-37.22945312 88.3740625 -36.94328125 89.62703125 -36.6484375 90.91796875 C-36.48746582 91.62276367 -36.32649414 92.32755859 -36.16064453 93.05371094 C-34.85609315 97.2349907 -32.22964398 100.05451733 -28.55078125 102.34375 C-22.69367016 105.38683006 -18.03190305 106.24541028 -11.39208984 106.29467773 C-10.32801659 106.30470825 -10.32801659 106.30470825 -9.2424469 106.31494141 C-7.70649281 106.32895962 -6.17051827 106.34086387 -4.63453293 106.35088921 C-2.2056299 106.36732918 0.22312026 106.39056492 2.65194702 106.41578674 C9.55597307 106.48650343 16.46005882 106.54683312 23.36425781 106.59790039 C27.58997684 106.62963129 31.81551507 106.67088196 36.0410881 106.71809578 C37.65265035 106.73414029 39.26425415 106.74645051 40.87587357 106.75500298 C43.12397989 106.76711185 45.37165773 106.79123894 47.61962891 106.81811523 C49.54012558 106.83357643 49.54012558 106.83357643 51.49942017 106.84934998 C54.484375 107.12109375 54.484375 107.12109375 56.484375 109.12109375 C56.72729492 112.0703125 56.72729492 112.0703125 56.71484375 115.80859375 C56.71438553 116.46690186 56.71392731 117.12520996 56.7134552 117.8034668 C56.71043381 119.19549359 56.70255081 120.58751703 56.69018555 121.97949219 C56.67194632 124.11275178 56.66967576 126.24557688 56.66992188 128.37890625 C56.63192317 138.82599742 56.63192317 138.82599742 55.484375 141.12109375 C47.56381237 141.16790163 39.64330969 141.20320455 31.72264194 141.22471809 C28.04282734 141.23505525 24.3631089 141.24902455 20.68334961 141.27197266 C-38.05736923 141.62834308 -38.05736923 141.62834308 -57.390625 124.05859375 C-70.14830168 110.19869133 -72.12309526 92.21768029 -71.953125 74.18359375 C-71.94975128 73.48453918 -71.94637756 72.78548462 -71.94290161 72.06524658 C-71.80612631 52.47868769 -67.82225575 34.74415011 -53.68359375 20.2265625 C-52.96816406 19.53175781 -52.25273438 18.83695313 -51.515625 18.12109375 C-50.97550781 17.56035156 -50.43539062 16.99960938 -49.87890625 16.421875 C-36.8545267 3.92240747 -17.26062566 0.83086863 0 0 Z M-34.578125 44.05859375 C-36.76303053 47.5121541 -37.27268425 50.0720812 -37.515625 54.12109375 C-34.64744047 55.55518602 -32.19191897 55.24838976 -28.98632812 55.25048828 C-27.98121437 55.25311676 -27.98121437 55.25311676 -26.95579529 55.25579834 C-24.73612901 55.26020725 -22.51654212 55.25728225 -20.296875 55.25390625 C-18.75752751 55.25457957 -17.21818013 55.25554982 -15.67883301 55.25680542 C-12.45075469 55.25828109 -9.22270402 55.25613203 -5.99462891 55.25146484 C-1.85163421 55.24576763 2.29129571 55.24904733 6.43428802 55.25503731 C9.61351003 55.25864644 12.79271662 55.25750271 15.97193909 55.25490952 C17.49980171 55.25424122 19.02766573 55.25506527 20.55552673 55.25738907 C22.6887484 55.25992135 24.82186435 55.25606686 26.95507812 55.25048828 C28.17038208 55.24969269 29.38568604 55.24889709 30.63781738 55.24807739 C33.43192097 55.31686615 33.43192097 55.31686615 35.484375 54.12109375 C35.57106856 48.77086249 34.89286534 44.997448 31.421875 40.80859375 C24.23547192 33.431531 14.82625795 30.93540215 4.73608398 30.74072266 C-9.56958884 30.77305186 -24.25791663 33.06405358 -34.578125 44.05859375 Z " fill="#4C4EA1" transform="translate(1012.515625,51.87890625)"/>
<path d="M0 0 C0.76451477 -0.00335861 1.52902954 -0.00671722 2.31671143 -0.01017761 C4.85503754 -0.01970753 7.39329771 -0.02163238 9.93164062 -0.02270508 C11.69844591 -0.02591851 13.46525094 -0.02928265 15.23205566 -0.03279114 C18.94442358 -0.03878909 22.6567682 -0.04063058 26.36914062 -0.04003906 C31.10551847 -0.03993792 35.84174478 -0.05353745 40.57808685 -0.07081127 C44.2328763 -0.08198682 47.88762991 -0.0839565 51.54243469 -0.08342934 C53.28697731 -0.08460312 55.03152105 -0.08899082 56.77604675 -0.0967617 C81.95250398 -0.19832249 81.95250398 -0.19832249 92.58789062 8.14526367 C107.53091688 23.08828993 107.7117558 43.4890463 107.72683716 63.21461487 C107.72504823 65.16155014 107.72299749 67.10848518 107.72070312 69.05541992 C107.72137763 71.07514965 107.72234887 73.09487931 107.72360229 75.11460876 C107.72506934 79.32462343 107.72295477 83.53461674 107.71826172 87.74462891 C107.71253187 93.1484879 107.71587015 98.55229758 107.72183418 103.95615482 C107.72543855 108.11586381 107.72430236 112.27556098 107.72170639 116.43527031 C107.72103848 118.42924442 107.72186081 120.42321959 107.72418594 122.41719246 C107.72671396 125.19124348 107.72287126 127.96521291 107.71728516 130.73925781 C107.71930939 131.56570297 107.72133362 132.39214813 107.72341919 133.24363708 C107.70216173 138.91672146 107.70216173 138.91672146 106.58789062 141.14526367 C93.54005545 141.21481329 80.49226446 141.26810031 67.44428158 141.30070019 C61.38539514 141.31634749 55.32663565 141.337569 49.26782227 141.37158203 C43.41934017 141.40420836 37.5709801 141.42212373 31.72241402 141.4298954 C29.49251955 141.43543299 27.26263167 141.44624654 25.03278923 141.46245384 C21.90639759 141.48427124 18.78050841 141.48722874 15.65405273 141.48583984 C14.73479507 141.49662567 13.81553741 141.5074115 12.86842346 141.51852417 C6.35407242 141.48726573 1.55196982 140.51447576 -3.66992188 136.34057617 C-13.65942744 125.26434615 -17.01270369 110.9255205 -16.28710938 96.27026367 C-15.16705762 80.59701858 -10.33051397 69.00688011 1.53710938 58.67651367 C4.89468631 56.16952289 7.71468437 56.01313372 11.77441406 55.97167969 C12.83271423 55.95818985 13.8910144 55.94470001 14.98138428 55.93080139 C16.12512512 55.92036301 17.26886597 55.90992462 18.44726562 55.89916992 C20.86654 55.8662257 23.28581074 55.83301416 25.70507812 55.79956055 C29.52113296 55.7521912 33.33717368 55.70777106 37.15332031 55.66845703 C40.8347931 55.62864831 44.51596162 55.57711812 48.19726562 55.52416992 C49.33290955 55.51575577 50.46855347 55.50734161 51.63861084 55.49867249 C57.34447276 55.41000299 62.2033076 55.065428 67.58789062 53.14526367 C68.57789063 52.81526367 69.56789063 52.48526367 70.58789062 52.14526367 C72.36348209 49.12675819 72.58821697 47.16353896 72.52539062 43.64526367 C71.37425272 39.34768215 70.04739119 37.90872275 66.58789062 35.14526367 C63.07448085 34.39403295 63.07448085 34.39403295 59.15136719 34.50170898 C58.42072556 34.49283157 57.69008392 34.48395416 56.93730164 34.47480774 C54.53390558 34.45119694 52.13198031 34.46229714 49.72851562 34.47338867 C48.05652278 34.46280848 46.38454319 34.4498968 44.71258545 34.43475342 C40.32018233 34.40057091 35.92822358 34.39517054 31.53570557 34.39666748 C25.33050117 34.3934386 19.12541984 34.35083176 12.92034912 34.31292725 C9.61613133 34.29285898 6.31214977 34.28357714 3.00787354 34.28277588 C1.5075276 34.27895735 0.00718173 34.27511354 -1.49316406 34.27124023 C-3.46576202 34.27054535 -3.46576202 34.27054535 -5.47821045 34.26983643 C-8.41210938 34.14526367 -8.41210938 34.14526367 -9.41210938 33.14526367 C-9.50050608 30.76957848 -9.52741243 28.42317693 -9.50976562 26.04760742 C-9.50835068 25.33874893 -9.50693573 24.62989044 -9.50547791 23.89955139 C-9.4998638 21.62724655 -9.487309 19.35503892 -9.47460938 17.08276367 C-9.46959619 15.54565572 -9.46503297 14.00854622 -9.4609375 12.47143555 C-9.4498898 8.69600725 -9.43261579 4.92065196 -9.41210938 1.14526367 C-6.40269435 -0.35944384 -3.30075097 -0.0020628 0 0 Z M16.58789062 92.14526367 C15.07462037 96.2121775 15.14278811 100.00777947 16.71289062 104.02026367 C19.41705199 107.08497989 21.69139851 108.92429153 25.87704468 109.4119873 C28.75785037 109.5094137 31.62359996 109.5083509 34.50585938 109.47338867 C35.55945145 109.4715155 36.61304352 109.46964233 37.69856262 109.4677124 C39.92008643 109.46100206 42.14159863 109.44710787 44.36303711 109.42651367 C47.77338572 109.39528203 51.18327237 109.38553363 54.59375 109.37963867 C56.75195879 109.37047154 58.91016287 109.3600967 61.06835938 109.34838867 C62.09229294 109.34413879 63.1162265 109.33988892 64.17118835 109.33551025 C65.11589493 109.32590271 66.0606015 109.31629517 67.03393555 109.30639648 C68.28372444 109.29615448 68.28372444 109.29615448 69.5587616 109.28570557 C71.65647083 109.27113528 71.65647083 109.27113528 73.58789062 108.14526367 C73.61677577 104.99944944 73.63464986 101.85366898 73.65039062 98.70776367 C73.66295898 97.36101562 73.66295898 97.36101562 73.67578125 95.98706055 C73.67900391 95.13305664 73.68222656 94.27905273 73.68554688 93.39916992 C73.69078369 92.60841064 73.69602051 91.81765137 73.70141602 91.00292969 C73.79284972 89.12933679 73.79284972 89.12933679 72.58789062 88.14526367 C71.01899076 88.03111474 69.44502078 87.98568527 67.87207031 87.96826172 C66.86722595 87.95542648 65.86238159 87.94259125 64.8270874 87.92936707 C63.73237122 87.92198013 62.63765503 87.9145932 61.50976562 87.90698242 C60.39104065 87.89891068 59.27231567 87.89083893 58.11968994 87.88252258 C55.74566202 87.86866096 53.371614 87.85794816 50.99755859 87.85009766 C47.36712755 87.83290215 43.73761084 87.78903533 40.10742188 87.74487305 C37.80404317 87.7347452 35.50065671 87.72622939 33.19726562 87.71948242 C32.11064636 87.70197433 31.0240271 87.68446625 29.90447998 87.66642761 C22.39570438 87.64428786 22.39570438 87.64428786 16.58789062 92.14526367 Z " fill="#4C4EA1" transform="translate(1567.412109375,51.854736328125)"/>
<path d="M0 0 C0.76130219 -0.0049649 1.52260437 -0.00992981 2.30697632 -0.01504517 C4.83568215 -0.029693 7.36432503 -0.03647699 9.89306641 -0.04199219 C11.65508017 -0.04774631 13.41709392 -0.05350401 15.17910767 -0.05926514 C18.88307995 -0.06978585 22.58703049 -0.07561992 26.29101562 -0.07910156 C31.00932601 -0.08455532 35.72734327 -0.10851129 40.44556236 -0.13707352 C44.09185584 -0.15582446 47.7380809 -0.16091232 51.38441849 -0.16243744 C53.12173674 -0.16544203 54.85905443 -0.17339533 56.59632492 -0.18662262 C82.58891246 -0.37021896 82.58891246 -0.37021896 92.61962891 9.16113281 C93.23580078 9.73734375 93.85197266 10.31355469 94.48681641 10.90722656 C104.29148796 21.02749913 106.94563375 34.93025433 106.86254883 48.53027344 C106.86444717 49.52484558 106.86634552 50.51941772 106.86830139 51.54412842 C106.87197954 54.80196235 106.86135219 58.05956902 106.85009766 61.31738281 C106.84890468 63.58898899 106.84845294 65.86059567 106.84870911 68.13220215 C106.84714968 72.87625242 106.83889729 77.62022665 106.82543945 82.36425781 C106.80837273 88.45881421 106.8046276 94.55328779 106.80538464 100.6478653 C106.80511353 105.32996416 106.79964322 110.01204476 106.79238319 114.69413757 C106.7891929 116.94292564 106.78722828 119.19171578 106.78648949 121.44050598 C106.78433413 124.56942321 106.77560974 127.69825039 106.76489258 130.82714844 C106.76534576 131.76318909 106.76579895 132.69922974 106.76626587 133.66363525 C106.73411009 140.04665163 106.73411009 140.04665163 105.61962891 141.16113281 C102.51595621 141.27249204 99.43433426 141.31853964 96.32983398 141.32226562 C95.35421509 141.32723053 94.37859619 141.33219543 93.37341309 141.33731079 C90.12865506 141.35197849 86.88394596 141.35874315 83.63916016 141.36425781 C81.39051817 141.37000685 79.1418762 141.37576461 76.89323425 141.38153076 C72.16946178 141.3920548 67.44570639 141.39788782 62.72192383 141.40136719 C56.67015017 141.40684537 50.61860225 141.43085319 44.5668993 141.45933914 C39.91803837 141.47797112 35.26923165 141.4831715 30.62033653 141.48470306 C28.38962257 141.48773042 26.15890959 141.49576171 23.92823219 141.50888824 C20.80411321 141.52595504 17.68054326 141.52406639 14.55639648 141.51757812 C13.63511459 141.52679291 12.7138327 141.53600769 11.76463318 141.54550171 C5.27498906 141.50331113 1.10495937 140.28275637 -3.94287109 135.97363281 C-14.47597918 123.82004656 -17.32141271 108.91486661 -16.38037109 93.16113281 C-14.79796812 81.03831684 -10.70600624 68.56221761 -1.38037109 60.16113281 C5.00874791 55.63112004 11.32410017 55.60138423 18.93212891 55.65722656 C20.10042236 55.64780533 21.26871582 55.63838409 22.47241211 55.62867737 C26.18833126 55.60011796 29.9036091 55.5969459 33.61962891 55.59863281 C37.33555475 55.5950181 41.05101634 55.58541148 44.7668457 55.55787659 C47.0729387 55.54116851 49.3791844 55.53814875 51.68530273 55.55088806 C58.38599753 55.50715644 64.98038077 55.37141696 70.27856445 50.69773865 C72.20415766 48.49137358 72.48647929 47.09042432 72.61962891 44.16113281 C70.80465977 38.78108668 70.80465977 38.78108668 66.61962891 35.16113281 C64.1798958 34.95403657 61.8510516 34.86024158 59.41015625 34.8581543 C58.31463188 34.8454953 58.31463188 34.8454953 57.19697571 34.83258057 C54.78316604 34.80679143 52.36947857 34.7946617 49.95556641 34.78222656 C48.28072129 34.76605608 46.60588564 34.74887656 44.93106079 34.73072815 C40.52234254 34.68502384 36.11361179 34.65022344 31.70477295 34.61853027 C24.6401919 34.56666321 17.5757494 34.5016765 10.51134109 34.43031502 C8.03787726 34.40741002 5.56443126 34.39118718 3.09091187 34.37559509 C1.58404339 34.36219431 0.07717679 34.34858003 -1.4296875 34.3347168 C-2.12268448 34.33210342 -2.81568146 34.32949005 -3.52967834 34.32679749 C-8.26673402 34.27476989 -8.26673402 34.27476989 -9.38037109 33.16113281 C-9.4687678 30.78544762 -9.49567415 28.43904607 -9.47802734 26.06347656 C-9.4766124 25.35461807 -9.47519745 24.64575958 -9.47373962 23.91542053 C-9.46812552 21.64311569 -9.45557072 19.37090806 -9.44287109 17.09863281 C-9.43785791 15.56152486 -9.43329469 14.02441536 -9.42919922 12.48730469 C-9.41815152 8.71187639 -9.40087751 4.9365211 -9.38037109 1.16113281 C-6.37969578 -0.33920485 -3.29152747 0.0050961 0 0 Z M16.61962891 92.16113281 C15.00422018 95.39195027 15.03000141 98.66872379 15.61962891 102.16113281 C17.57620088 105.68900582 19.72817954 107.86398302 23.61962891 109.16113281 C25.1890927 109.25786039 26.76229131 109.29926122 28.3347168 109.30639648 C29.76618797 109.31596626 29.76618797 109.31596626 31.22657776 109.32572937 C32.2547612 109.32684219 33.28294464 109.32795502 34.34228516 109.32910156 C35.39870712 109.33242996 36.45512909 109.33575836 37.54356384 109.33918762 C39.77700362 109.34425122 42.01045097 109.34659612 44.24389648 109.34643555 C47.67200043 109.34862634 51.09978486 109.36679998 54.52783203 109.38574219 C56.69514863 109.38867528 58.86246677 109.39066064 61.02978516 109.39160156 C62.05999283 109.39878708 63.0902005 109.4059726 64.15162659 109.41337585 C65.10278854 109.41029922 66.0539505 109.4072226 67.03393555 109.40405273 C67.87316055 109.40547775 68.71238556 109.40690277 69.57704163 109.40837097 C71.8451394 109.3469649 71.8451394 109.3469649 73.61962891 107.16113281 C73.81819862 104.2877122 73.89791837 101.53251293 73.86962891 98.66113281 C73.87736328 97.87609375 73.88509766 97.09105469 73.89306641 96.28222656 C74.06382788 91.7458103 74.06382788 91.7458103 71.61962891 88.16113281 C69.4329539 87.8415146 69.4329539 87.8415146 66.88208008 87.87060547 C65.40495796 87.85146591 65.40495796 87.85146591 63.897995 87.8319397 C62.29647331 87.82860123 62.29647331 87.82860123 60.66259766 87.82519531 C59.56748367 87.81853851 58.47236969 87.81188171 57.34407043 87.80502319 C55.02309858 87.79488249 52.7020975 87.79020661 50.38110352 87.79052734 C46.83186577 87.78616323 43.28388008 87.74988201 39.73486328 87.71191406 C37.48161233 87.70604442 35.22835547 87.70207602 32.97509766 87.70019531 C31.38268501 87.67863876 31.38268501 87.67863876 29.75810242 87.65664673 C22.35986405 87.6986668 22.35986405 87.6986668 16.61962891 92.16113281 Z " fill="#4C4EA1" transform="translate(1800.38037109375,51.8388671875)"/>
<path d="M0 0 C1.48118099 -0.00067545 2.96236187 -0.00164748 4.44354248 -0.00289917 C7.51592079 -0.00435927 10.58826968 -0.00227289 13.66064453 0.00244141 C17.60500491 0.00819855 21.54929812 0.00481179 25.49365616 -0.00113106 C28.53727737 -0.00473121 31.58088241 -0.00360167 34.62450409 -0.00100327 C36.08062498 -0.00033559 37.53674733 -0.00115688 38.99286652 -0.00348282 C41.01249668 -0.00600678 43.03213201 -0.00148153 45.05175781 0.00341797 C46.7749826 0.00461136 46.7749826 0.00461136 48.53302002 0.00582886 C51.109375 0.1328125 51.109375 0.1328125 52.109375 1.1328125 C52.19781293 3.58111676 52.22466252 6.00101849 52.20703125 8.44921875 C52.2056163 9.18027328 52.20420135 9.91132782 52.20274353 10.66453552 C52.19712908 13.00816882 52.18457422 15.35170789 52.171875 17.6953125 C52.16686186 19.28059758 52.16229863 20.86588416 52.15820312 22.45117188 C52.14715497 26.3450886 52.12988072 30.23893455 52.109375 34.1328125 C50.7132901 34.13828094 50.7132901 34.13828094 49.28900146 34.14385986 C40.51921674 34.18079583 31.74978361 34.23855287 22.98026657 34.31671524 C18.47169281 34.35623026 13.96331554 34.38839886 9.45458984 34.40380859 C5.10364464 34.41894887 0.75323947 34.45334703 -3.59746552 34.50112152 C-5.25759946 34.51596258 -6.91781049 34.52385508 -8.57801056 34.52469635 C-10.90317913 34.52705969 -13.22684755 34.55408506 -15.55175781 34.58691406 C-16.2386821 34.5818837 -16.92560638 34.57685333 -17.63334656 34.57167053 C-20.94340412 34.64401594 -22.63983309 34.93903759 -25.29071045 36.98724365 C-27.39358166 39.80730361 -27.82030753 41.61693878 -27.890625 45.1328125 C-26.35979133 48.92721598 -26.35979133 48.92721598 -23.890625 52.1328125 C-22.52262227 52.2445446 -21.14906538 52.28950251 -19.77661133 52.30639648 C-18.90091995 52.31988632 -18.02522858 52.33337616 -17.1230011 52.34727478 C-16.1658873 52.35771317 -15.2087735 52.36815155 -14.22265625 52.37890625 C-12.19335597 52.41190039 -10.16405919 52.44511092 -8.13476562 52.47851562 C-4.93826253 52.52552661 -1.7417674 52.56983152 1.45483398 52.60961914 C37.80231333 53.08439654 37.80231333 53.08439654 47.9140625 61.6640625 C58.33601103 72.65636643 58.68630415 89.45873928 58.359375 103.75390625 C57.93592863 113.49105558 55.53009836 122.01877377 50.109375 130.1328125 C49.51125 131.0403125 48.913125 131.9478125 48.296875 132.8828125 C43.87966432 137.4262292 38.55429659 140.85154148 32.12070942 141.25865364 C31.4177584 141.25903067 30.71480738 141.25940769 29.99055481 141.25979614 C29.17874252 141.26261597 28.36693024 141.26543579 27.53051758 141.26834106 C26.64879883 141.26631683 25.76708008 141.2642926 24.85864258 141.26220703 C23.92332199 141.26395935 22.9880014 141.26571167 22.02433777 141.26751709 C18.93417504 141.271917 15.84406956 141.26900485 12.75390625 141.265625 C10.60967498 141.2662984 8.46544378 141.26726873 6.32121277 141.26852417 C1.82977572 141.26999848 -2.66164144 141.2678545 -7.15307617 141.26318359 C-12.92380188 141.25747616 -18.69448118 141.26077341 -24.46520519 141.26675606 C-28.89081679 141.27036008 -33.31641727 141.269224 -37.74202919 141.26662827 C-39.87080198 141.26595909 -41.99957577 141.2667871 -44.1283474 141.26910782 C-47.09495108 141.27163284 -50.06147823 141.26779636 -53.02807617 141.26220703 C-54.35976334 141.26524338 -54.35976334 141.26524338 -55.71835327 141.26834106 C-61.77636046 141.24707704 -61.77636046 141.24707704 -62.890625 140.1328125 C-62.9790217 137.7571273 -63.00592805 135.41072576 -62.98828125 133.03515625 C-62.9868663 132.32629776 -62.98545135 131.61743927 -62.98399353 130.88710022 C-62.97837943 128.61479538 -62.96582463 126.34258775 -62.953125 124.0703125 C-62.94811181 122.53320454 -62.94354859 120.99609505 -62.93945312 119.45898438 C-62.92840542 115.68355608 -62.91113141 111.90820079 -62.890625 108.1328125 C-59.85641305 106.61570652 -56.69762314 106.96228868 -53.36743164 106.94335938 C-52.20379341 106.93091942 -52.20379341 106.93091942 -51.01664734 106.91822815 C-49.32951473 106.90081196 -47.64235772 106.88564944 -45.95518684 106.87245178 C-43.28674583 106.85145205 -40.6184271 106.82442659 -37.95005798 106.79577637 C-32.28446047 106.73603213 -26.61880628 106.68390426 -20.953125 106.6328125 C-14.39267344 106.57361191 -7.8322821 106.51132192 -1.27194023 106.44093323 C1.35986024 106.41433396 3.99166667 106.39353322 6.6235199 106.3729248 C8.23461192 106.35632205 9.84570119 106.33945024 11.45678711 106.32226562 C12.19091827 106.31808121 12.92504944 106.31389679 13.681427 106.30958557 C16.75847076 106.27151455 19.16691435 106.11363272 22.109375 105.1328125 C23.17862037 101.92507638 23.27622456 99.50296432 23.296875 96.1328125 C23.31105469 95.0809375 23.32523438 94.0290625 23.33984375 92.9453125 C23.32118426 89.92522562 23.32118426 89.92522562 21.109375 87.1328125 C18.13888323 86.14264858 16.17800825 86.00292857 13.078125 85.9909668 C12.05275635 85.98393234 11.0273877 85.97689789 9.97094727 85.96965027 C8.30696899 85.96340385 8.30696899 85.96340385 6.609375 85.95703125 C4.25389746 85.933818 1.8984287 85.90970007 -0.45703125 85.88476562 C-4.16526024 85.8497731 -7.87316962 85.820376 -11.58154297 85.80688477 C-15.16413165 85.79130412 -18.74578646 85.75101309 -22.328125 85.70703125 C-23.42125 85.70893967 -24.514375 85.71084808 -25.640625 85.71281433 C-35.705315 85.55482996 -44.74720735 83.30006549 -52.171875 76.1796875 C-60.14153154 66.68855107 -61.26895746 55.24633287 -61.203125 43.3203125 C-61.19748535 42.25804443 -61.1918457 41.19577637 -61.18603516 40.10131836 C-61.01286789 28.93717324 -59.83092303 18.61143582 -51.890625 10.1328125 C-37.82153088 -1.48948265 -17.19795314 -0.0280081 0 0 Z " fill="#4C4EA1" transform="translate(1247.890625,51.8671875)"/>
<path d="M0 0 C1.96287712 -0.00945648 1.96287712 -0.00945648 3.96540833 -0.019104 C5.37757503 -0.01552264 6.78974049 -0.01142029 8.2019043 -0.00683594 C9.67010055 -0.00818565 11.13829636 -0.01012873 12.60649109 -0.01263428 C15.67699457 -0.01557391 18.74738126 -0.0113273 21.81787109 -0.00195312 C25.72795889 0.00941046 29.63777112 0.0028943 33.5478487 -0.00909805 C36.57899497 -0.01637407 39.61007747 -0.01400206 42.64122581 -0.00884247 C44.08153505 -0.00752021 45.52185031 -0.009103 46.96215248 -0.01380157 C63.22546381 -0.05520409 77.30069836 2.41077493 89.65112305 13.82128906 C99.95922244 24.97849055 103.55382835 38.31106282 103.45654297 53.17480469 C103.45844131 54.10939514 103.46033966 55.0439856 103.46229553 56.00689697 C103.46596529 59.05969955 103.45535874 62.11225808 103.4440918 65.16503906 C103.44289836 67.29829887 103.44244718 69.43155921 103.44270325 71.56481934 C103.44114528 76.01622853 103.43290404 80.46755652 103.41943359 84.91894531 C103.40236192 90.63335578 103.39862199 96.34767791 103.39937878 102.0621109 C103.3991075 106.4577316 103.39363449 110.85333288 103.38637733 115.24894714 C103.38319048 117.35735426 103.38122322 119.46576358 103.38048363 121.57417297 C103.37832493 124.50879716 103.36959332 127.44332588 103.35888672 130.37792969 C103.3593399 131.25269958 103.35979309 132.12746948 103.36026001 133.02874756 C103.32810843 139.02981829 103.32810843 139.02981829 102.21362305 141.25878906 C97.674646 141.28344299 93.13570762 141.30162695 88.59667969 141.3137207 C87.05142539 141.31876046 85.50617588 141.32559226 83.9609375 141.33422852 C81.74437276 141.34630982 79.52787086 141.35202079 77.3112793 141.35644531 C76.26907982 141.36418724 76.26907982 141.36418724 75.20582581 141.37208557 C73.54132975 141.37228183 71.87696806 141.32068035 70.21362305 141.25878906 C68.12690852 139.17207453 69.05941839 134.59866089 69.0559082 131.71923828 C69.05082748 130.82325424 69.04574677 129.9272702 69.04051208 129.00413513 C69.02978184 127.05069849 69.02117216 125.09724936 69.01439285 123.14379501 C69.0026346 120.0500719 68.98318765 116.95649034 68.96127319 113.86282349 C68.89956879 105.06387054 68.84567449 96.2649296 68.81225586 87.46582031 C68.79128335 82.08938656 68.75595237 76.71320648 68.71149826 71.33691788 C68.69735105 69.28849403 68.68861872 67.24002526 68.68544388 65.19155502 C68.68052276 62.31900367 68.65733133 59.44712184 68.63012695 56.57470703 C68.63313309 55.73182632 68.63613922 54.88894562 68.63923645 54.02052307 C68.54569304 47.35286959 67.24350482 42.66259643 62.83862305 37.44628906 C54.97107165 30.88999623 44.20963734 31.98373862 34.50927734 31.90869141 C32.93523437 31.89206936 31.36126876 31.86469745 29.78759766 31.82666016 C27.50082888 31.77182158 25.21580475 31.75002033 22.9284668 31.73535156 C22.22938705 31.71268219 21.53030731 31.69001282 20.81004333 31.66665649 C17.28584318 31.68185268 15.40438868 32.12169773 12.52627563 34.1900177 C9.30006593 38.4710325 9.53212377 41.71641297 9.61767578 46.94262695 C9.61361725 47.91228897 9.60955872 48.88195099 9.6053772 49.8809967 C9.59986429 51.98225477 9.60585626 54.08356759 9.62203789 56.18477058 C9.64742994 59.50935223 9.64266923 62.83269242 9.63014221 66.15733337 C9.60938758 73.21212158 9.62909151 80.2665261 9.65112305 87.32128906 C9.67221007 95.49958564 9.67683913 103.67748407 9.65062141 111.85577202 C9.64725351 115.13322024 9.66850619 118.40991271 9.69102478 121.68727112 C9.68851412 123.69296434 9.68495468 125.69865661 9.68017578 127.7043457 C9.69306137 128.61718323 9.70594696 129.53002075 9.71922302 130.47052002 C9.67017805 136.62909831 9.67017805 136.62909831 7.353302 139.82458496 C4.57561047 141.68644213 2.79055282 141.76101008 -0.5402832 141.75488281 C-2.19253906 141.75584961 -2.19253906 141.75584961 -3.87817383 141.75683594 C-5.02350586 141.73685547 -6.16883789 141.716875 -7.34887695 141.69628906 C-8.49807617 141.70337891 -9.64727539 141.71046875 -10.83129883 141.71777344 C-19.25918532 141.65358918 -19.25918532 141.65358918 -21.57519531 139.91918945 C-23.8338771 136.82277847 -23.91578395 134.00267219 -23.93354797 130.30680847 C-23.94070328 129.28482864 -23.94785858 128.26284882 -23.95523071 127.2098999 C-23.95791962 126.0893219 -23.96060852 124.9687439 -23.96337891 123.81420898 C-23.9699501 122.63347305 -23.9765213 121.45273712 -23.98329163 120.23622131 C-24.003037 116.32057339 -24.01469119 112.40493887 -24.0246582 108.48925781 C-24.02870662 107.14003288 -24.03282357 105.79080815 -24.03700829 104.44158363 C-24.05605389 98.10269745 -24.07028658 91.76382287 -24.07862025 85.42491359 C-24.08839262 78.11289161 -24.11471436 70.80117235 -24.15512115 63.48925704 C-24.18529868 57.83394529 -24.20009064 52.17872025 -24.20340127 46.52332956 C-24.2057498 43.14720839 -24.21468391 39.77141085 -24.23986244 36.39537621 C-24.26415114 32.6271884 -24.26330719 28.85979448 -24.25634766 25.09155273 C-24.26915771 23.97704742 -24.28196777 22.86254211 -24.29516602 21.71426392 C-24.25365618 15.5543421 -23.91479381 11.93714497 -19.78637695 7.25878906 C-13.85860103 1.46274149 -8.16073269 0.01134537 0 0 Z " fill="#4C4EA1" transform="translate(1951.786376953125,51.7412109375)"/>
<path d="M0 0 C2.13334022 -0.00218879 4.26616522 -0.02035646 6.39941406 -0.03930664 C7.75097479 -0.0422402 9.10253798 -0.04422525 10.45410156 -0.04516602 C11.68773437 -0.0492749 12.92136719 -0.05338379 14.19238281 -0.05761719 C17.14160156 0.18530273 17.14160156 0.18530273 19.14160156 2.18530273 C19.33344109 5.26791109 19.40055182 8.26161547 19.38110352 11.3449707 C19.38311768 12.2946875 19.38513184 13.2444043 19.38720703 14.22290039 C19.39075875 16.28983137 19.38997783 18.35677321 19.38543129 20.42370224 C19.37985608 23.69316961 19.38896725 26.96227982 19.40263367 30.23171997 C19.43983884 39.52892605 19.45828974 48.82601267 19.44702148 58.12329102 C19.44117749 63.80567296 19.4593988 69.48755425 19.49291039 75.16983414 C19.50087868 77.33797939 19.49956817 79.50617901 19.48888588 81.67431259 C19.47459466 84.70571231 19.49079334 87.73553365 19.51391602 90.7668457 C19.50214828 91.66569489 19.49038055 92.56454407 19.47825623 93.4906311 C19.51738152 98.64707139 19.51738152 98.64707139 22.55802917 102.71072388 C32.82743129 108.57200468 45.20654294 109.38474291 56.66113281 106.93139648 C60.43804681 105.79534834 63.6833182 104.07163911 67.14160156 102.18530273 C67.80160156 102.18530273 68.46160156 102.18530273 69.14160156 102.18530273 C70.04347178 99.47969208 70.27315261 97.89093521 70.29309082 95.11080933 C70.30143448 94.2835434 70.30977814 93.45627747 70.31837463 92.60394287 C70.32255905 91.69992737 70.32674347 90.79591187 70.33105469 89.86450195 C70.33934799 88.90982025 70.3476413 87.95513855 70.35618591 86.9715271 C70.37358992 84.89752742 70.38875578 82.82350804 70.40196228 80.74947739 C70.42296411 77.4724281 70.44998715 74.1954783 70.4786377 70.91848755 C70.54852175 62.78176805 70.6079637 54.64497817 70.66766357 46.50817871 C70.71850012 39.63114299 70.77328695 32.75416146 70.83348083 25.87720108 C70.86015174 22.63925004 70.88090547 19.40129421 70.90148926 16.16329956 C70.91808359 14.19130205 70.93495465 12.21930683 70.95214844 10.24731445 C70.95633286 9.33925049 70.96051727 8.43118652 70.96482849 7.49560547 C71.02775382 1.29915048 71.02775382 1.29915048 72.14160156 0.18530273 C74.42107948 0.08509344 76.70367291 0.0544897 78.98535156 0.05249023 C79.66964233 0.05153351 80.35393311 0.05057678 81.05895996 0.04959106 C82.50822033 0.04890944 83.95748374 0.05076251 85.40673828 0.05493164 C87.63223084 0.06028021 89.85752157 0.05498614 92.08300781 0.04858398 C93.48795618 0.04924477 94.89290442 0.05052594 96.29785156 0.05249023 C97.58498047 0.05361816 98.87210938 0.05474609 100.19824219 0.0559082 C103.14160156 0.18530273 103.14160156 0.18530273 104.14160156 1.18530273 C104.24594892 2.65985155 104.28122286 4.13935194 104.28877258 5.61756897 C104.29592789 6.57501007 104.30308319 7.53245117 104.31045532 8.51890564 C104.31314423 9.57807693 104.31583313 10.63724823 104.31860352 11.72851562 C104.32517471 12.83747192 104.33174591 13.94642822 104.33851624 15.08898926 C104.35831195 18.77864644 104.36992782 22.46826274 104.37988281 26.15795898 C104.38395834 27.41580137 104.38803387 28.67364376 104.39223289 29.96960258 C104.41096623 35.9432883 104.42552299 41.91696095 104.43384486 47.89066893 C104.4435991 54.77877617 104.4698643 61.6665605 104.51034576 68.55455405 C104.54422192 74.52446015 104.55599662 80.49428782 104.56004906 86.46429253 C104.56491962 89.00038271 104.57654687 91.53646933 104.59508705 94.07249641 C104.61945305 97.62736704 104.61851711 101.18139942 104.61157227 104.73632812 C104.62438232 105.7813298 104.63719238 106.82633148 104.65039062 107.90299988 C104.59678769 115.44635919 103.05879903 120.76298742 98.13378906 126.54077148 C78.99737839 143.09976891 54.2413164 143.14011961 30.14160156 142.18530273 C16.50982118 141.091334 0.83324484 136.58821625 -8.67480469 126.20092773 C-12.55918102 121.22143807 -15.1131349 116.70828657 -15.09890747 110.25614929 C-15.1016568 109.29006241 -15.10440613 108.32397552 -15.10723877 107.32861328 C-15.10004822 106.28060547 -15.09285767 105.23259766 -15.08544922 104.15283203 C-15.08574127 103.04019485 -15.08603333 101.92755768 -15.08633423 100.78120422 C-15.08494201 97.10723038 -15.06938558 93.43345986 -15.05371094 89.75952148 C-15.04998043 87.21076061 -15.04713364 84.6619983 -15.0451355 82.11323547 C-15.03828205 76.09264686 -15.02252254 70.0721454 -15.00243652 64.05159169 C-14.98006081 57.19551006 -14.96907989 50.3394249 -14.95904565 43.48331583 C-14.93815579 29.38393783 -14.90299026 15.28462427 -14.85839844 1.18530273 C-10.55166902 -0.96806197 -4.78514839 -0.00055205 0 0 Z " fill="#4C4EA1" transform="translate(1339.8583984375,51.814697265625)"/>
<path d="M0 0 C12.87 0 25.74 0 39 0 C40.36601457 2.73202914 40.12782953 4.89337724 40.13130188 7.9528656 C40.13531006 9.22181671 40.13931824 10.49076782 40.14344788 11.798172 C40.14297276 13.21237185 40.14243664 14.62657168 40.1418457 16.04077148 C40.14487638 17.5238658 40.14839758 19.00695919 40.15237427 20.49005127 C40.16026998 23.68815146 40.16541067 26.88624047 40.16866493 30.08434868 C40.17456653 35.13871057 40.19109814 40.19300174 40.21000671 45.24732971 C40.21634422 46.97635169 40.22266984 48.70537372 40.22898388 50.43439579 C40.23214969 51.30033458 40.2353155 52.16627337 40.23857725 53.05845273 C40.28069139 64.82875091 40.31364121 76.59901625 40.32592773 88.36938477 C40.33429625 96.30471026 40.35674121 104.23986092 40.3952834 112.17509896 C40.41508407 116.37658862 40.42743544 120.57781668 40.42244911 124.779356 C40.41781766 128.72998477 40.43152474 132.68011712 40.45946121 136.63064575 C40.46639831 138.08228488 40.46647258 139.53397508 40.45926094 140.98561287 C40.45042432 142.96379522 40.46835506 144.94204372 40.48774719 146.92015076 C40.49013555 148.02831367 40.4925239 149.13647657 40.49498463 150.27822018 C40.7563038 153.09550464 40.7563038 153.09550464 42.81492615 154.85549068 C46.02808868 156.53849762 49.14787788 156.4312373 52.69018555 156.41650391 C53.84445038 156.42938194 53.84445038 156.42938194 55.02203369 156.44252014 C57.56035524 156.4675741 60.09828489 156.4719577 62.63671875 156.4765625 C64.39981788 156.49087062 66.1629058 156.5066273 67.92597961 156.52377319 C72.56322 156.56562598 77.20039089 156.59062594 81.83776855 156.61126709 C89.27146188 156.6470902 96.70498404 156.70791765 104.13849831 156.76975632 C106.74049965 156.78890633 109.34245513 156.80059228 111.94450378 156.81118774 C113.52900291 156.82139407 115.11350107 156.83175149 116.69799805 156.84228516 C117.42682693 156.84332748 118.15565582 156.84436981 118.90657043 156.84544373 C123.8865722 156.8865722 123.8865722 156.8865722 125 158 C125.10087212 160.50924153 125.13972032 162.99036384 125.1328125 165.5 C125.13376923 166.25087891 125.13472595 167.00175781 125.13571167 167.77539062 C125.13639338 169.36588627 125.13453972 170.95638467 125.13037109 172.546875 C125.12502267 174.98964655 125.13031634 177.43223421 125.13671875 179.875 C125.13605797 181.41666707 125.1347768 182.95833403 125.1328125 184.5 C125.13483673 185.23541016 125.13686096 185.97082031 125.13894653 186.72851562 C125.11495161 191.88504839 125.11495161 191.88504839 124 193 C121.43203028 193.11109771 118.89070938 193.15739192 116.32177734 193.16113281 C115.51667221 193.16609772 114.71156708 193.17106262 113.88206482 193.17617798 C111.2000138 193.19085879 108.51802223 193.19761698 105.8359375 193.203125 C103.96758015 193.20887861 102.09922281 193.21463632 100.23086548 193.22039795 C96.29811325 193.23092946 92.36538155 193.23675572 88.43261719 193.24023438 C83.43096655 193.24567544 78.42959421 193.26959888 73.42803001 193.29820633 C69.55857607 193.31699545 65.68918638 193.32204723 61.8196907 193.32357025 C59.9787916 193.32656885 58.13789286 193.33450104 56.29703903 193.34775543 C40.19856132 193.45523862 22.87550567 193.231716 10.1875 181.875 C0.11793132 170.95046794 -0.2984172 156.4676957 -0.22705078 142.47436523 C-0.22648582 140.91640734 -0.22680489 139.35844892 -0.22793579 137.80049133 C-0.22850697 133.59449956 -0.21679084 129.38862307 -0.20278788 125.18265796 C-0.19024124 120.77843999 -0.18910693 116.37421905 -0.18673706 111.96998596 C-0.18053382 103.64042484 -0.1641387 95.31091654 -0.14403808 86.98137861 C-0.12164303 77.49405434 -0.1106766 68.00672747 -0.10064721 58.51938331 C-0.0797714 39.01288622 -0.04310967 19.5064615 0 0 Z " fill="#4C4EA1" transform="translate(149,0)"/>
<path d="M0 0 C10.89 0 21.78 0 33 0 C33.33 12.54 33.66 25.08 34 38 C42.13758424 37.92088771 42.13758424 37.92088771 50.27490234 37.81982422 C51.28504395 37.8148291 52.29518555 37.80983398 53.3359375 37.8046875 C54.37282715 37.79421387 55.4097168 37.78374023 56.47802734 37.77294922 C59 38 59 38 61 40 C61.24291992 43.05688477 61.24291992 43.05688477 61.23046875 46.94140625 C61.23001053 47.62428207 61.22955231 48.3071579 61.2290802 49.01072693 C61.22605891 50.45402769 61.21817622 51.89732522 61.20581055 53.34057617 C61.1875433 55.55724553 61.18530093 57.77349758 61.18554688 59.99023438 C61.14742468 70.85257532 61.14742468 70.85257532 60 72 C51.42 72 42.84 72 34 72 C34 96.09 34 120.18 34 145 C42.25 145 50.5 145 59 145 C59.66 145.33 60.32 145.66 61 146 C61.02465392 150.53897705 61.04283789 155.07791543 61.05493164 159.61694336 C61.0599714 161.16219766 61.0668032 162.70744716 61.07543945 164.25268555 C61.08752076 166.46925029 61.09323173 168.68575218 61.09765625 170.90234375 C61.10539818 171.94454323 61.10539818 171.94454323 61.11329651 173.00779724 C61.11349277 174.6722933 61.06189129 176.33665499 61 178 C58.85559087 180.14440913 53.97010805 179.18889873 50.99609375 179.203125 C50.0842482 179.20882507 49.17240265 179.21452515 48.23292542 179.22039795 C46.29518805 179.22986823 44.35743443 179.23638994 42.41967773 179.24023438 C39.47415283 179.24987997 36.52934351 179.28085871 33.58398438 179.3125 C31.70052497 179.31903593 29.81706058 179.32428408 27.93359375 179.328125 C27.05932236 179.3404718 26.18505096 179.3528186 25.2842865 179.36553955 C18.21258036 179.34018485 11.70922287 178.03280618 6.1875 173.25 C5.64480469 172.80140625 5.10210938 172.3528125 4.54296875 171.890625 C0.05113852 166.3867115 -0.44435765 160.76145345 -0.43237305 153.94360352 C-0.4425647 153.06475998 -0.45275635 152.18591644 -0.46325684 151.28044128 C-0.49327626 148.39653049 -0.50263585 145.51295246 -0.51171875 142.62890625 C-0.52857363 140.62107753 -0.54672496 138.61325931 -0.56611633 136.60545349 C-0.61353451 131.3365914 -0.64339685 126.0677719 -0.66955566 120.79876709 C-0.69940245 115.41588941 -0.74591865 110.03315832 -0.79101562 104.65039062 C-0.87695569 94.10033723 -0.94434235 83.55025359 -1 73 C-2.28777344 72.93941406 -3.57554688 72.87882812 -4.90234375 72.81640625 C-6.58074159 72.73201753 -8.25912636 72.6473687 -9.9375 72.5625 C-10.78763672 72.52318359 -11.63777344 72.48386719 -12.51367188 72.44335938 C-13.32255859 72.40146484 -14.13144531 72.35957031 -14.96484375 72.31640625 C-15.7137085 72.27974854 -16.46257324 72.24309082 -17.23413086 72.20532227 C-19 72 -19 72 -20 71 C-20.21832989 66.60001055 -20.18579146 62.19465188 -20.18530273 57.78979492 C-20.18748751 55.57516218 -20.20563531 53.36102877 -20.22460938 51.14648438 C-20.22754356 49.74479338 -20.22952819 48.3431 -20.23046875 46.94140625 C-20.23457764 45.65951416 -20.23868652 44.37762207 -20.24291992 43.05688477 C-20 40 -20 40 -18 38 C-9.585 37.505 -9.585 37.505 -1 37 C-0.67 24.79 -0.34 12.58 0 0 Z " fill="#4C4EA1" transform="translate(1708,14)"/>
<path d="M0 0 C0.82290527 0.00202423 1.64581055 0.00404846 2.49365234 0.00613403 C3.33331543 0.00517731 4.17297852 0.00422058 5.03808594 0.00323486 C6.81689529 0.00255306 8.59570712 0.00440737 10.37451172 0.00857544 C13.10699011 0.01392371 15.83930411 0.00863048 18.57177734 0.00222778 C20.29573604 0.00288856 22.01969464 0.00416973 23.74365234 0.00613403 C24.56655762 0.0041098 25.38946289 0.00208557 26.23730469 0 C32.0037018 0.02399599 32.0037018 0.02399599 33.11865234 1.13894653 C33.21857411 3.60296146 33.25306964 6.0390066 33.24563599 8.50357056 C33.24719598 9.28367792 33.24875597 10.06378528 33.25036323 10.86753225 C33.25437634 13.50164225 33.2511824 16.1356954 33.24804688 18.76980591 C33.24940078 20.65008071 33.25118065 22.53035524 33.25335693 24.41062927 C33.25793257 29.53238126 33.25614117 34.6541132 33.25297785 39.77586555 C33.25045492 45.12325217 33.2527916 50.47063701 33.25436401 55.81802368 C33.25618591 64.79983836 33.25377889 73.78164482 33.24902344 82.76345825 C33.24358078 93.16365959 33.24534342 103.56384133 33.25084984 113.96404219 C33.25538042 122.87610782 33.2560318 131.78816753 33.25341117 140.70023394 C33.25184809 146.03061272 33.25165548 151.36098227 33.25494766 156.69136047 C33.25782557 161.70140188 33.25585217 166.71141788 33.25005341 171.72145653 C33.24872537 173.56580246 33.24912065 175.41015052 33.25131607 177.25449562 C33.25402589 179.76113394 33.25064853 182.26768954 33.24563599 184.77432251 C33.24786671 185.51389867 33.25009743 186.25347484 33.25239575 187.0154624 C33.2328022 192.02479668 33.2328022 192.02479668 32.11865234 193.13894653 C29.31871637 193.23997908 26.54396591 193.27864741 23.74365234 193.27175903 C22.90398926 193.27271576 22.06432617 193.27367249 21.19921875 193.2746582 C19.4204094 193.27534001 17.64159757 193.2734857 15.86279297 193.26931763 C13.13031458 193.26396936 10.39800058 193.26926259 7.66552734 193.27566528 C5.94156865 193.2750045 4.21761005 193.27372334 2.49365234 193.27175903 C1.67074707 193.27378326 0.8478418 193.2758075 0 193.27789307 C-5.76639711 193.25389708 -5.76639711 193.25389708 -6.88134766 192.13894653 C-6.98126942 189.6749316 -7.01576496 187.23888647 -7.0083313 184.77432251 C-7.00989129 183.99421515 -7.01145128 183.21410779 -7.01305854 182.41036081 C-7.01707165 179.77625081 -7.01387771 177.14219767 -7.01074219 174.50808716 C-7.01209609 172.62781236 -7.01387596 170.74753782 -7.01605225 168.86726379 C-7.02062788 163.74551181 -7.01883649 158.62377987 -7.01567316 153.50202751 C-7.01315023 148.1546409 -7.01548691 142.80725606 -7.01705933 137.45986938 C-7.01888122 128.47805471 -7.0164742 119.49624824 -7.01171875 110.51443481 C-7.00627609 100.11423348 -7.00803874 89.71405174 -7.01354516 79.31385088 C-7.01807573 70.40178525 -7.01872711 61.48972554 -7.01610649 52.57765913 C-7.0145434 47.24728035 -7.0143508 41.91691079 -7.01764297 36.58653259 C-7.02052088 31.57649119 -7.01854749 26.56647518 -7.01274872 21.55643654 C-7.01142069 19.7120906 -7.01181596 17.86774255 -7.01401138 16.02339745 C-7.01672121 13.51675912 -7.01334384 11.01020353 -7.0083313 8.50357056 C-7.01056202 7.76399439 -7.01279274 7.02441823 -7.01509106 6.26243067 C-6.99006485 -0.1358304 -6.32579169 0.02632382 0 0 Z " fill="#4C4EA1" transform="translate(292.88134765625,-0.138946533203125)"/>
<path d="M0 0 C2.84142705 0.02392521 5.68193307 0.02050035 8.5234375 0.01391602 C10.33073478 0.01948342 12.13802813 0.02658735 13.9453125 0.03540039 C14.79417023 0.03448898 15.64302795 0.03357758 16.51760864 0.03263855 C22.45634886 0.1050305 22.45634886 0.1050305 24.6875 2.33618164 C24.93041992 5.39306641 24.93041992 5.39306641 24.91796875 9.27758789 C24.91751053 9.96046371 24.91705231 10.64333954 24.9165802 11.34690857 C24.91355891 12.79020933 24.90567622 14.23350686 24.89331055 15.67675781 C24.8750433 17.89342717 24.87280093 20.10967922 24.87304688 22.32641602 C24.83492468 33.18875696 24.83492468 33.18875696 23.6875 34.33618164 C21.53946615 34.43379375 19.38851476 34.46824054 17.23828125 34.47680664 C15.90167585 34.49514792 14.56508687 34.51471944 13.22851562 34.53540039 C11.11959447 34.56427296 9.01171894 34.58617891 6.90258789 34.58666992 C-2.19581419 34.22108498 -2.19581419 34.22108498 -10.20703125 37.75805664 C-13.84466435 42.21230125 -13.47603296 45.88129574 -13.50195312 51.43579102 C-13.51024643 52.37896683 -13.51853973 53.32214264 -13.52708435 54.29389954 C-13.54450781 56.3460877 -13.55966831 58.39829602 -13.57286072 60.45051575 C-13.59384201 63.69415556 -13.62086803 66.93769403 -13.64953613 70.18127441 C-13.70929976 77.06620484 -13.76143267 83.95118193 -13.8125 90.83618164 C-13.87165604 98.81171812 -13.93388899 106.78720448 -14.00437927 114.76264954 C-14.0310272 117.96565149 -14.05179736 121.16865829 -14.0723877 124.3717041 C-14.08898566 126.32666263 -14.10585705 128.28161886 -14.12304688 130.23657227 C-14.12723129 131.13326126 -14.13141571 132.02995026 -14.13572693 132.95381165 C-14.19865654 139.10849472 -14.19865654 139.10849472 -15.3125 141.33618164 C-20.27872349 141.36083262 -25.24491166 141.37901813 -30.21118164 141.39111328 C-31.90194316 141.39615354 -33.59270029 141.40298569 -35.28344727 141.41162109 C-37.70850707 141.42370021 -40.13350944 141.42941287 -42.55859375 141.43383789 C-43.69922523 141.44157982 -43.69922523 141.44157982 -44.86289978 141.44947815 C-46.6798257 141.44967402 -48.49663127 141.39815441 -50.3125 141.33618164 C-51.85638124 139.7923004 -51.44786579 138.35420513 -51.45967102 136.20330811 C-51.47040398 134.86633377 -51.47040398 134.86633377 -51.48135376 133.50234985 C-51.48404266 132.51648895 -51.48673157 131.53062805 -51.48950195 130.51489258 C-51.49607315 129.48224274 -51.50264435 128.4495929 -51.50941467 127.38565063 C-51.52921876 123.9472853 -51.54083162 120.50896397 -51.55078125 117.07055664 C-51.55485678 115.89618294 -51.5589323 114.72180923 -51.56313133 113.51184845 C-51.58403134 107.28532587 -51.59831087 101.05882552 -51.60766602 94.83227539 C-51.61868408 88.42016915 -51.65301947 82.0084144 -51.69283772 75.59643173 C-51.71909102 70.65304962 -51.72736604 65.7097497 -51.73094749 60.76630402 C-51.73579806 58.40460104 -51.74736799 56.04290136 -51.76598549 53.68126678 C-51.9891549 23.47201023 -51.9891549 23.47201023 -42.34765625 12.33618164 C-30.05834819 0.25916489 -16.33525925 -0.14769415 0 0 Z " fill="#4C4EA1" transform="translate(1148.3125,51.663818359375)"/>
<path d="M0 0 C0.89917648 -0.00095673 1.79835297 -0.00191345 2.72477722 -0.00289917 C4.61494009 -0.00357697 6.50510533 -0.0017507 8.39526367 0.00244141 C11.30067081 0.00782678 14.20592556 0.00246686 17.11132812 -0.00390625 C18.94921909 -0.00324601 20.78710997 -0.00196598 22.625 0 C23.93426201 -0.00303635 23.93426201 -0.00303635 25.26997375 -0.00613403 C31.36549757 0.01784132 31.36549757 0.01784132 32.48046875 1.1328125 C32.56890668 3.58111676 32.59575627 6.00101849 32.578125 8.44921875 C32.57671005 9.18027328 32.5752951 9.91132782 32.57383728 10.66453552 C32.56822283 13.00816882 32.55566797 15.35170789 32.54296875 17.6953125 C32.53795561 19.28059758 32.53339238 20.86588416 32.52929688 22.45117188 C32.51824872 26.3450886 32.50097447 30.23893455 32.48046875 34.1328125 C31.59786377 34.14739502 30.71525879 34.16197754 29.8059082 34.17700195 C26.51608232 34.23823317 23.22706945 34.3124158 19.93774414 34.39526367 C18.51695673 34.42841807 17.09604062 34.45647942 15.67504883 34.47924805 C13.62656055 34.51297097 11.57924155 34.56528995 9.53125 34.62109375 C7.68527222 34.66036987 7.68527222 34.66036987 5.80200195 34.70043945 C2.11142985 35.1808513 0.31649727 35.72759653 -2.51953125 38.1328125 C-5.5120608 43.74081078 -5.95797765 48.34342829 -5.93603516 54.63232422 C-5.94462051 55.55832932 -5.95320587 56.48433441 -5.96205139 57.43840027 C-5.98701936 60.47984526 -5.99148098 63.52096209 -5.99609375 66.5625 C-6.01040811 68.68003329 -6.0261659 70.79755727 -6.04330444 72.91506958 C-6.08508402 78.47454997 -6.11013441 84.03397259 -6.13079834 89.59356689 C-6.16667662 98.51354635 -6.22744339 107.43338379 -6.28928757 116.35321426 C-6.30843268 119.47374685 -6.32012042 122.59424125 -6.33071899 125.71481323 C-6.34092414 127.61309902 -6.35128146 129.51138399 -6.36181641 131.40966797 C-6.3633799 132.72025932 -6.3633799 132.72025932 -6.36497498 134.05732727 C-6.40609939 140.01938064 -6.40609939 140.01938064 -7.51953125 141.1328125 C-10.02877278 141.23368462 -12.50989509 141.27253282 -15.01953125 141.265625 C-15.77041016 141.26658173 -16.52128906 141.26753845 -17.29492188 141.26852417 C-18.88541752 141.26920588 -20.47591592 141.26735222 -22.06640625 141.26318359 C-24.5091778 141.25783517 -26.95176546 141.26312884 -29.39453125 141.26953125 C-30.93619832 141.26887047 -32.47786528 141.2675893 -34.01953125 141.265625 C-34.75494141 141.26764923 -35.49035156 141.26967346 -36.24804688 141.27175903 C-41.40457964 141.24776411 -41.40457964 141.24776411 -42.51953125 140.1328125 C-42.62366302 138.72839313 -42.65914149 137.31880723 -42.66670227 135.91055298 C-42.67385757 134.99951813 -42.68101288 134.08848328 -42.68838501 133.14984131 C-42.69241837 131.63828461 -42.69241837 131.63828461 -42.6965332 130.09619141 C-42.7031044 129.04082184 -42.7096756 127.98545227 -42.71644592 126.89810181 C-42.73624647 123.38519222 -42.74786067 119.87232566 -42.7578125 116.359375 C-42.76188803 115.16043987 -42.76596355 113.96150475 -42.77016258 112.72623825 C-42.79105881 106.37234416 -42.80534129 100.01847185 -42.81469727 93.66455078 C-42.82572844 87.11324691 -42.86008039 80.56228584 -42.89986897 74.01110268 C-42.92608398 68.96657705 -42.9343938 63.92213215 -42.93797874 58.8775444 C-42.94283735 56.46394936 -42.95443047 54.05035775 -42.97301674 51.63682938 C-42.99749578 48.24540879 -42.99642595 44.85486172 -42.98950195 41.46337891 C-43.00231201 40.47591675 -43.01512207 39.48845459 -43.02832031 38.47106934 C-42.94258389 26.87420856 -38.81418806 17.798653 -30.9296875 9.44921875 C-22.24972926 1.25942286 -11.43396897 -0.02682793 0 0 Z " fill="#4C4EA1" transform="translate(1506.51953125,51.8671875)"/>
</svg>
