<?xml version="1.0" encoding="UTF-8"?>
<svg version="1.1" xmlns="http://www.w3.org/2000/svg" width="400" height="70">
<path d="M0 0 C132 0 264 0 400 0 C400 23.1 400 46.2 400 70 C268 70 136 70 0 70 C0 46.9 0 23.8 0 0 Z " fill="#F9F6FD" transform="translate(0,0)"/>
<path d="M0 0 C1.13119766 -0.00292557 2.26239532 -0.00585114 3.4278717 -0.00886536 C4.64462082 0.00864273 5.86136993 0.02615082 7.11499023 0.04418945 C8.99358986 0.04912163 8.99358986 0.04912163 10.91014099 0.05415344 C13.55766722 0.06457844 16.2038385 0.08230937 18.85107422 0.11328125 C22.24286763 0.15289596 25.6343087 0.17089807 29.02630711 0.18059063 C32.26424931 0.19056749 35.50210238 0.21080523 38.73999023 0.23168945 C40.56815025 0.24276985 40.56815025 0.24276985 42.4332428 0.2540741 C43.5612883 0.26690933 44.6893338 0.27974457 45.8515625 0.29296875 C46.84543472 0.30281296 47.83930695 0.31265717 48.86329651 0.32279968 C52.20571866 0.51973705 53.96429101 1.11985925 56.48608398 3.3449707 C60.42050541 7.80398165 59.43420295 12.83981004 59.36108398 18.4699707 C55.07108398 18.4699707 50.78108398 18.4699707 46.36108398 18.4699707 C46.03108398 16.8199707 45.70108398 15.1699707 45.36108398 13.4699707 C31.17108398 13.4699707 16.98108398 13.4699707 2.36108398 13.4699707 C2.36108398 17.4299707 2.36108398 21.3899707 2.36108398 25.4699707 C3.88507812 25.45949707 5.40907227 25.44902344 6.97924805 25.43823242 C12.62977757 25.40205088 18.28029683 25.37907684 23.9309082 25.36010742 C26.37721478 25.35004566 28.82350932 25.33639489 31.26977539 25.3190918 C34.7846168 25.29485151 38.29929928 25.28348932 41.81420898 25.2746582 C42.90912659 25.26433563 44.00404419 25.25401306 45.13214111 25.24337769 C46.15289734 25.24322662 47.17365356 25.24307556 48.2253418 25.24291992 C49.12246887 25.2384787 50.01959595 25.23403748 50.94390869 25.22946167 C53.55458549 25.48922411 55.15711578 26.06419075 57.36108398 27.4699707 C59.52973404 31.80727082 58.63536974 37.58092835 58.67358398 42.3449707 C58.71708984 44.1412793 58.71708984 44.1412793 58.76147461 45.97387695 C58.76985352 47.12500977 58.77823242 48.27614258 58.78686523 49.4621582 C58.80144775 50.51773926 58.81603027 51.57332031 58.83105469 52.66088867 C58.24216483 56.18076746 57.09713471 57.25479281 54.36108398 59.4699707 C50.95425835 61.74118779 49.78311214 61.71465957 45.78808594 61.69702148 C44.64712967 61.69687042 43.5061734 61.69671936 42.3306427 61.69656372 C41.09932114 61.68624115 39.86799957 61.67591858 38.59936523 61.6652832 C36.70797066 61.66103836 36.70797066 61.66103836 34.77836609 61.65670776 C31.42947976 61.64740195 28.08086608 61.62943773 24.73205566 61.6072998 C21.31350051 61.58682456 17.89491718 61.57770247 14.47631836 61.56762695 C7.77116479 61.5455525 1.06614013 61.51206433 -5.63891602 61.4699707 C-5.63891602 60.8099707 -5.63891602 60.1499707 -5.63891602 59.4699707 C-6.95891602 59.1399707 -8.27891602 58.8099707 -9.63891602 58.4699707 C-9.96891602 57.1499707 -10.29891602 55.8299707 -10.63891602 54.4699707 C-11.29891602 54.4699707 -11.95891602 54.4699707 -12.63891602 54.4699707 C-12.63891602 50.5099707 -12.63891602 46.5499707 -12.63891602 42.4699707 C-8.01891602 42.4699707 -3.39891602 42.4699707 1.36108398 42.4699707 C1.69108398 44.4499707 2.02108398 46.4299707 2.36108398 48.4699707 C16.55108398 48.4699707 30.74108398 48.4699707 45.36108398 48.4699707 C45.69108398 44.8399707 46.02108398 41.2099707 46.36108398 37.4699707 C44.89243896 37.47520752 43.42379395 37.48044434 41.91064453 37.48583984 C36.4707093 37.50391647 31.03077674 37.5154125 25.59082031 37.52490234 C23.23469598 37.52993645 20.87857478 37.53676417 18.52246094 37.54541016 C15.13923368 37.557516 11.75604767 37.56320819 8.37280273 37.56762695 C6.78830574 37.57536888 6.78830574 37.57536888 5.17179871 37.58326721 C4.19100845 37.58334274 3.2102182 37.58341827 2.19970703 37.58349609 C1.33588913 37.58571671 0.47207123 37.58793732 -0.41792297 37.59022522 C-2.63891602 37.4699707 -2.63891602 37.4699707 -5.63891602 36.4699707 C-5.96891602 35.8099707 -6.29891602 35.1499707 -6.63891602 34.4699707 C-7.62891602 34.1399707 -8.61891602 33.8099707 -9.63891602 33.4699707 C-10.13391602 31.9849707 -10.13391602 31.9849707 -10.63891602 30.4699707 C-11.29891602 30.1399707 -11.95891602 29.8099707 -12.63891602 29.4699707 C-12.63891602 22.5399707 -12.63891602 15.6099707 -12.63891602 8.4699707 C-11.97891602 8.4699707 -11.31891602 8.4699707 -10.63891602 8.4699707 C-10.55641602 7.8924707 -10.47391602 7.3149707 -10.38891602 6.7199707 C-8.61176621 1.38852128 -5.33701497 -0.03147605 0 0 Z " fill="#670DD5" transform="translate(13.638916015625,3.530029296875)"/>
<path d="M0 0 C1.11448013 -0.00315216 2.22896027 -0.00630432 3.37721252 -0.009552 C4.5803862 -0.00752777 5.78355988 -0.00550354 7.02319336 -0.00341797 C8.25718369 -0.00437469 9.49117401 -0.00533142 10.76255798 -0.00631714 C14.04153193 -0.00717257 17.3204586 -0.00314372 20.59942627 0.00244141 C22.61252345 0.00439403 24.62557709 0.00244655 26.63867188 -0.00097656 C30.49603312 -0.00713432 34.35332947 -0.00641095 38.21069336 -0.00341797 C39.41589127 -0.0054422 40.62108917 -0.00746643 41.86280823 -0.009552 C42.9741362 -0.00639984 44.08546417 -0.00324768 45.23046875 0 C46.2118129 0.00079559 47.19315704 0.00159119 48.20423889 0.00241089 C50.55053711 0.12939453 50.55053711 0.12939453 52.55053711 1.12939453 C52.55053711 1.78939453 52.55053711 2.44939453 52.55053711 3.12939453 C53.54053711 3.12939453 54.53053711 3.12939453 55.55053711 3.12939453 C56.04553711 5.60439453 56.04553711 5.60439453 56.55053711 8.12939453 C57.21053711 8.12939453 57.87053711 8.12939453 58.55053711 8.12939453 C58.55053711 11.42939453 58.55053711 14.72939453 58.55053711 18.12939453 C53.93053711 18.12939453 49.31053711 18.12939453 44.55053711 18.12939453 C44.22053711 16.47939453 43.89053711 14.82939453 43.55053711 13.12939453 C29.36053711 13.12939453 15.17053711 13.12939453 0.55053711 13.12939453 C0.22053711 16.75939453 -0.10946289 20.38939453 -0.44946289 24.12939453 C1.10482422 24.14921387 2.65911133 24.1690332 4.26049805 24.18945312 C10.02303362 24.26548243 15.78531581 24.35420432 21.54760742 24.44677734 C24.04234823 24.48507807 26.53714447 24.51992899 29.03198242 24.55126953 C32.61649396 24.59689577 36.20062351 24.65489513 39.78491211 24.71533203 C41.46009918 24.73265884 41.46009918 24.73265884 43.16912842 24.75033569 C44.2099054 24.77020538 45.25068237 24.79007507 46.32299805 24.81054688 C47.695336 24.83053238 47.695336 24.83053238 49.09539795 24.85092163 C51.73029792 25.14978381 53.34906299 25.65861021 55.55053711 27.12939453 C57.76898885 32.58749008 57.8859617 37.85529337 57.86303711 43.69189453 C57.87915039 44.51625 57.89526367 45.34060547 57.91186523 46.18994141 C57.91592914 51.27388758 57.28269765 54.68152368 54.55053711 59.12939453 C53.56053711 59.12939453 52.57053711 59.12939453 51.55053711 59.12939453 C51.55053711 59.78939453 51.55053711 60.44939453 51.55053711 61.12939453 C32.08053711 61.12939453 12.61053711 61.12939453 -7.44946289 61.12939453 C-7.44946289 60.46939453 -7.44946289 59.80939453 -7.44946289 59.12939453 C-8.25383789 58.86126953 -9.05821289 58.59314453 -9.88696289 58.31689453 C-10.73258789 57.92501953 -11.57821289 57.53314453 -12.44946289 57.12939453 C-13.99513859 52.49236742 -13.50681917 48.00467802 -13.44946289 43.12939453 C-9.15946289 43.12939453 -4.86946289 43.12939453 -0.44946289 43.12939453 C-0.11946289 44.77939453 0.21053711 46.42939453 0.55053711 48.12939453 C14.74053711 48.12939453 28.93053711 48.12939453 43.55053711 48.12939453 C43.88053711 44.49939453 44.21053711 40.86939453 44.55053711 37.12939453 C43.08189209 37.13463135 41.61324707 37.13986816 40.10009766 37.14526367 C34.66016243 37.16334029 29.22022987 37.17483633 23.78027344 37.18432617 C21.42414911 37.18936028 19.06802791 37.19618799 16.71191406 37.20483398 C13.32868681 37.21693983 9.94550079 37.22263202 6.56225586 37.22705078 C4.97775887 37.23479271 4.97775887 37.23479271 3.36125183 37.24269104 C2.38046158 37.24276657 1.39967133 37.2428421 0.38916016 37.24291992 C-0.47465775 37.24514053 -1.33847565 37.24736115 -2.22846985 37.24964905 C-4.44946289 37.12939453 -4.44946289 37.12939453 -7.44946289 36.12939453 C-7.77946289 35.46939453 -8.10946289 34.80939453 -8.44946289 34.12939453 C-9.43946289 33.79939453 -10.42946289 33.46939453 -11.44946289 33.12939453 C-14.24277286 28.52043307 -13.74452898 23.27578358 -13.69946289 18.06689453 C-13.70719727 17.1690625 -13.71493164 16.27123047 -13.72290039 15.34619141 C-13.72032227 14.47929687 -13.71774414 13.61240234 -13.71508789 12.71923828 C-13.71283203 11.93411865 -13.71057617 11.14899902 -13.70825195 10.34008789 C-13.24561593 6.38804152 -11.46444044 3.66197567 -8.44946289 1.12939453 C-5.36012115 0.09961395 -3.23721696 0.00262234 0 0 Z " fill="#670CD5" transform="translate(340.449462890625,3.87060546875)"/>
<path d="M0 0 C1.13119766 -0.0030011 2.26239532 -0.0060022 3.4278717 -0.00909424 C4.64462082 0.00325256 5.86136993 0.01559937 7.11499023 0.02832031 C8.36738998 0.03019348 9.61978973 0.03206665 10.91014099 0.03399658 C13.55742826 0.04071912 16.20394562 0.05298869 18.85107422 0.07519531 C22.24286287 0.10350604 25.63441151 0.11441069 29.02630711 0.11887741 C32.26423119 0.12403448 35.50209756 0.13857236 38.73999023 0.15332031 C39.95876358 0.15757019 41.17753693 0.16182007 42.4332428 0.16619873 C43.5612883 0.17580627 44.6893338 0.18541382 45.8515625 0.1953125 C47.34237083 0.2055545 47.34237083 0.2055545 48.86329651 0.21600342 C51.912335 0.38744024 53.93729548 1.08755716 56.51318359 2.72192383 C59.50179018 6.98273156 58.9513198 11.42873741 58.92749023 16.50878906 C58.93368881 17.60107315 58.93988739 18.69335724 58.9462738 19.81874084 C58.95337489 22.12776803 58.95019301 24.43684639 58.9375 26.74584961 C58.92364725 30.27781535 58.95768858 33.80712577 58.99584961 37.33886719 C58.99680092 39.58300846 58.99494135 41.82715305 58.98999023 44.07128906 C59.00324844 45.12662338 59.01650665 46.1819577 59.03016663 47.26927185 C58.92663156 55.42899118 58.92663156 55.42899118 55.88427734 58.49926758 C55.05162354 59.11213623 54.21896973 59.72500488 53.36108398 60.35644531 C53.03108398 60.68644531 52.70108398 61.01644531 52.36108398 61.35644531 C50.55053373 61.45020584 48.73631197 61.47388641 46.92333984 61.4699707 C45.18164772 61.46985741 45.18164772 61.46985741 43.4047699 61.46974182 C41.50949303 61.46199989 41.50949303 61.46199989 39.57592773 61.45410156 C38.28997208 61.45268661 37.00401642 61.45127167 35.67909241 61.44981384 C32.25464956 61.44598949 28.8302489 61.43615993 25.40582275 61.42510986 C21.9137021 61.41489396 18.42157464 61.41031584 14.92944336 61.40527344 C8.0733062 61.39453758 1.21719712 61.37746215 -5.63891602 61.35644531 C-5.63891602 60.69644531 -5.63891602 60.03644531 -5.63891602 59.35644531 C-6.27829102 59.25332031 -6.91766602 59.15019531 -7.57641602 59.04394531 C-8.25704102 58.81707031 -8.93766602 58.59019531 -9.63891602 58.35644531 C-10.13391602 56.87144531 -10.13391602 56.87144531 -10.63891602 55.35644531 C-11.29891602 55.35644531 -11.95891602 55.35644531 -12.63891602 55.35644531 C-12.63891602 43.14644531 -12.63891602 30.93644531 -12.63891602 18.35644531 C-8.34891602 18.35644531 -4.05891602 18.35644531 0.36108398 18.35644531 C0.69108398 28.58644531 1.02108398 38.81644531 1.36108398 49.35644531 C15.88108398 49.02644531 30.40108398 48.69644531 45.36108398 48.35644531 C45.36108398 36.80644531 45.36108398 25.25644531 45.36108398 13.35644531 C26.22108398 13.02644531 7.08108398 12.69644531 -12.63891602 12.35644531 C-12.63891602 10.70644531 -12.63891602 9.05644531 -12.63891602 7.35644531 C-11.97891602 7.35644531 -11.31891602 7.35644531 -10.63891602 7.35644531 C-10.55641602 6.75832031 -10.47391602 6.16019531 -10.38891602 5.54394531 C-8.67724258 0.55156447 -4.80717942 -0.01761915 0 0 Z " fill="#660BD5" transform="translate(185.638916015625,3.6435546875)"/>
<path d="M0 0 C8.16236829 -0.02258349 16.32471233 -0.04093395 24.48710346 -0.05181217 C28.27714002 -0.0570329 32.06715411 -0.0641159 35.85717773 -0.07543945 C39.51408802 -0.08629704 43.17097668 -0.09228295 46.82790184 -0.09487724 C48.22376025 -0.0967263 49.61961747 -0.10033699 51.01546669 -0.10573006 C52.96903964 -0.11297844 54.92263431 -0.11340838 56.8762207 -0.11352539 C58.5450103 -0.11685631 58.5450103 -0.11685631 60.24751282 -0.12025452 C63 0 63 0 66 1 C66 1.66 66 2.32 66 3 C66.804375 3.268125 67.60875 3.53625 68.4375 3.8125 C69.7059375 4.4003125 69.7059375 4.4003125 71 5 C72.61404287 9.84212861 72.184521 14.80474787 72.1875 19.875 C72.19974609 20.96425781 72.21199219 22.05351562 72.22460938 23.17578125 C72.22654297 24.22894531 72.22847656 25.28210938 72.23046875 26.3671875 C72.23457764 27.32737793 72.23868652 28.28756836 72.24291992 29.27685547 C71.78118962 34.45287538 69.93726679 37.65928878 66 41 C63.07081707 41.97639431 61.20974262 42.12136181 58.16137695 42.11352539 C56.69019157 42.11341209 56.69019157 42.11341209 55.18928528 42.11329651 C54.13295395 42.10813522 53.07662262 42.10297394 51.98828125 42.09765625 C50.36323921 42.09553383 50.36323921 42.09553383 48.70536804 42.09336853 C45.24105075 42.08776559 41.7767978 42.07521258 38.3125 42.0625 C35.96549572 42.05748538 33.61849044 42.05292241 31.27148438 42.04882812 C25.51429808 42.0377952 19.75715995 42.02052858 14 42 C14 48.6 14 55.2 14 62 C9.38 62 4.76 62 0 62 C0 47.15 0 32.3 0 17 C4.62 17 9.24 17 14 17 C14 21.29 14 25.58 14 30 C28.52 30 43.04 30 58 30 C58 24.39 58 18.78 58 13 C38.86 12.67 19.72 12.34 0 12 C0 8.04 0 4.08 0 0 Z " fill="#680CD5" transform="translate(249,4)"/>
<path d="M0 0 C8.01470955 -0.02317818 16.02940507 -0.04094303 24.04413986 -0.05181217 C27.76576675 -0.05702901 31.48737069 -0.0641049 35.20898438 -0.07543945 C38.80106074 -0.08631093 42.39311505 -0.09228588 45.9852066 -0.09487724 C47.35511879 -0.0967238 48.72502977 -0.10032966 50.09493256 -0.10573006 C52.01477377 -0.11299688 53.93463722 -0.11340854 55.85449219 -0.11352539 C56.94703308 -0.115746 58.03957397 -0.11796661 59.16522217 -0.12025452 C63.0721032 0.04547984 65.19493625 0.30994535 68.1875 2.875 C72.37282987 7.78193847 71.18407912 14.3380648 71.1875 20.4375 C71.19974609 21.58283203 71.21199219 22.72816406 71.22460938 23.90820312 C71.22654297 25.00970703 71.22847656 26.11121094 71.23046875 27.24609375 C71.23457764 28.25341553 71.23868652 29.2607373 71.24291992 30.29858398 C70.80546781 35.16331525 68.60870914 37.82871015 65 41 C62.07081707 41.97639431 60.20974262 42.12136181 57.16137695 42.11352539 C55.69019157 42.11341209 55.69019157 42.11341209 54.18928528 42.11329651 C53.13295395 42.10813522 52.07662262 42.10297394 50.98828125 42.09765625 C49.36323921 42.09553383 49.36323921 42.09553383 47.70536804 42.09336853 C44.24105075 42.08776559 40.7767978 42.07521258 37.3125 42.0625 C34.96549572 42.05748538 32.61849044 42.05292241 30.27148438 42.04882812 C24.51429808 42.0377952 18.75715995 42.02052858 13 42 C13 48.27 13 54.54 13 61 C8.71 61 4.42 61 0 61 C0 46.81 0 32.62 0 18 C4.29 18 8.58 18 13 18 C13 21.96 13 25.92 13 30 C27.52 29.67 42.04 29.34 57 29 C57 23.72 57 18.44 57 13 C54.46324585 12.96241577 54.46324585 12.96241577 51.87524414 12.92407227 C46.29920568 12.84031176 40.72325097 12.75204041 35.14733219 12.66066074 C31.76532878 12.60540198 28.38331676 12.55197744 25.0012207 12.50268555 C21.11660573 12.44599054 17.23214122 12.38142415 13.34765625 12.31640625 C11.51800072 12.29133751 11.51800072 12.29133751 9.65138245 12.26576233 C8.53029587 12.24581711 7.40920929 12.22587189 6.25415039 12.20532227 C5.26153702 12.18977798 4.26892365 12.1742337 3.24623108 12.15821838 C1 12 1 12 0 11 C-0.07226502 9.14712498 -0.0838122 7.29166122 -0.0625 5.4375 C-0.05347656 4.42558594 -0.04445313 3.41367188 -0.03515625 2.37109375 C-0.02355469 1.58863281 -0.01195313 0.80617188 0 0 Z " fill="#660AD5" transform="translate(78,4)"/>
<path d="M0 0 C20.79 0 41.58 0 63 0 C63 0.33 63 0.66 63 1 C42.87 1 22.74 1 2 1 C2 3.97 2 6.94 2 10 C20.48 10 38.96 10 58 10 C58 10.66 58 11.32 58 12 C38.86 12 19.72 12 0 12 C0 8.04 0 4.08 0 0 Z " fill="#7532D8" transform="translate(249,4)"/>
<path d="M0 0 C20.46 0 40.92 0 62 0 C62 0.33 62 0.66 62 1 C42.2 1 22.4 1 2 1 C2 3.97 2 6.94 2 10 C19.16 10 36.32 10 54 10 C54 10.66 54 11.32 54 12 C46.47030348 12.02526648 38.9406178 12.04283141 31.41088867 12.05493164 C28.84708243 12.0599737 26.28327909 12.06680714 23.71948242 12.07543945 C20.04344979 12.08751064 16.36745502 12.09322942 12.69140625 12.09765625 C11.53725723 12.10281754 10.38310822 12.10797882 9.19398499 12.11329651 C8.13296066 12.11337204 7.07193634 12.11344757 5.97875977 12.11352539 C4.56978172 12.11685631 4.56978172 12.11685631 3.13233948 12.12025452 C1 12 1 12 0 11 C0 7.37 0 3.74 0 0 Z " fill="#7432D8" transform="translate(78,4)"/>
<path d="M0 0 C16.17 0 32.34 0 49 0 C47.68 0.33 46.36 0.66 45 1 C45 1.66 45 2.32 45 3 C30.81 3 16.62 3 2 3 C2 8.28 2 13.56 2 19 C1.34 19 0.68 19 0 19 C0 12.73 0 6.46 0 0 Z " fill="#D8C7F3" transform="translate(91,46)"/>
<path d="M0 0 C1.14088074 0.00022659 2.28176147 0.00045319 3.45721436 0.00068665 C4.68337463 0.0161705 5.90953491 0.03165436 7.17285156 0.04760742 C9.06212372 0.05397469 9.06212372 0.05397469 10.98956299 0.06047058 C14.33036194 0.07441496 17.6705424 0.10134692 21.01116943 0.13458252 C24.42308214 0.16532778 27.83505886 0.17898539 31.24707031 0.1940918 C37.93604305 0.22717803 44.62472411 0.27739093 51.31347656 0.34057617 C51.31347656 1.00057617 51.31347656 1.66057617 51.31347656 2.34057617 C51.97347656 2.67057617 52.63347656 3.00057617 53.31347656 3.34057617 C52.26564247 3.32392159 52.26564247 3.32392159 51.19664001 3.30693054 C44.59139618 3.20646125 37.98636767 3.13047679 31.38053036 3.08151531 C27.98488017 3.05549636 24.58986491 3.02024363 21.19458008 2.96337891 C17.28507263 2.89831679 13.37581615 2.87433177 9.46582031 2.85229492 C8.25514389 2.82648849 7.04446747 2.80068207 5.79710388 2.77409363 C-1.40943943 2.77170764 -5.325104 3.3965742 -10.68652344 8.34057617 C-10.36877557 5.40140836 -10.1496255 3.7914168 -7.99505615 1.69389343 C-5.12246043 0.00990891 -3.31881516 -0.02202753 0 0 Z " fill="#6217D3" transform="translate(185.6865234375,3.659423828125)"/>
<path d="M0 0 C1.14088074 0.00030212 2.28176147 0.00060425 3.45721436 0.00091553 C5.29645477 0.03188324 5.29645477 0.03188324 7.17285156 0.06347656 C8.43236633 0.06913635 9.6918811 0.07479614 10.98956299 0.08062744 C14.33056681 0.09922109 17.67047124 0.13512828 21.01116943 0.17944336 C24.42303996 0.22043654 27.83502426 0.23864698 31.24707031 0.25878906 C37.93617577 0.30290492 44.62476271 0.36985506 51.31347656 0.45410156 C51.31347656 0.78410156 51.31347656 1.11410156 51.31347656 1.45410156 C50.62300735 1.45552658 49.93253815 1.4569516 49.22114563 1.4584198 C42.03447751 1.47810647 34.84865992 1.53235897 27.66235352 1.60668945 C24.98031044 1.63266173 22.29861963 1.64638378 19.61645508 1.6496582 C15.76097595 1.65893476 11.90693654 1.69990212 8.05175781 1.74707031 C6.8526326 1.74313766 5.65350739 1.73920502 4.41804504 1.7351532 C-2.39460635 1.63892127 -2.39460635 1.63892127 -7.98266602 4.99829102 C-8.54493896 5.8087085 -9.10721191 6.61912598 -9.68652344 7.45410156 C-9.68652344 4.45410156 -9.68652344 4.45410156 -8.04193115 2.29498291 C-5.12087769 0.01201814 -3.67373731 -0.03251095 0 0 Z " fill="#6528D4" transform="translate(13.6865234375,3.5458984375)"/>
<path d="M0 0 C1.32 0.33 2.64 0.66 4 1 C5.94777649 6.71193186 6.30544879 11.80092755 6.25 17.8125 C6.25773437 18.67037109 6.26546875 19.52824219 6.2734375 20.41210938 C6.27085937 21.23130859 6.26828125 22.05050781 6.265625 22.89453125 C6.26336914 23.63550049 6.26111328 24.37646973 6.25878906 25.13989258 C6 27 6 27 4 29 C3.98541748 28.25838623 3.97083496 27.51677246 3.95581055 26.75268555 C3.88140543 23.39709369 3.78471994 20.04250506 3.6875 16.6875 C3.66494141 15.52025391 3.64238281 14.35300781 3.61914062 13.15039062 C3.58369141 12.03212891 3.54824219 10.91386719 3.51171875 9.76171875 C3.48553467 8.73006592 3.45935059 7.69841309 3.43237305 6.63549805 C2.94696174 3.67670918 2.26822629 2.85781049 0 1 C0 0.67 0 0.34 0 0 Z " fill="#742ED8" transform="translate(392,30)"/>
<path d="M0 0 C0.99 0 1.98 0 3 0 C3 7.26 3 14.52 3 22 C2.34 22 1.68 22 1 22 C1 22.99 1 23.98 1 25 C0.34 25 -0.32 25 -1 25 C-0.83701416 24.44280273 -0.67402832 23.88560547 -0.50610352 23.31152344 C0.0427175 20.80489661 0.11329385 18.58019076 0.09765625 16.015625 C0.09443359 15.08105469 0.09121094 14.14648438 0.08789062 13.18359375 C0.07951172 12.21550781 0.07113281 11.24742188 0.0625 10.25 C0.05798828 9.26644531 0.05347656 8.28289063 0.04882812 7.26953125 C0.03706483 4.84629209 0.02062684 2.42317727 0 0 Z " fill="#D0B6F1" transform="translate(397,36)"/>
</svg>
